<svg version="1.1" xmlns="http://www.w3.org/2000/svg" width="60px" height="60px" viewBox="0 0 60 60">
  <path opacity="0.3" fill="#111111" enable-background="new    " d="M30.33,27.19c-11.24,0-20.35,6.46-20.35,14.42
    s9.11,14.42,20.35,14.42s20.35-6.46,20.35-14.42S41.57,27.19,30.33,27.19z M30.21,55.03c-10.75,0-19.47-6.06-19.47-13.53
    s8.72-13.53,19.47-13.53s19.47,6.06,19.47,13.53S40.96,55.03,30.21,55.03z"/>
  <ellipse opacity="0.1" fill="#111111" enable-background="new    " cx="30.21" cy="41.5" rx="19.47" ry="13.53"/>
  <path fill="#FFFFFF" d="M33.43,43.9c-0.19,0-0.36-0.1-0.45-0.27c-0.1-0.19-0.06-0.42,0.08-0.57c0.01-0.01,0.76-0.81,1.19-1.75
    c0.29-0.63-0.76-1.38-0.77-1.39c-0.19-0.13-0.26-0.38-0.18-0.59c0.08-0.21,0.3-0.34,0.53-0.32l14.81,1.91
    c0.25,0.03,0.44,0.24,0.44,0.5c0,0.25-0.19,0.46-0.44,0.5l-15.16,1.99C33.47,43.89,33.45,43.9,33.43,43.9L33.43,43.9z M35.06,40.17
    c0.25,0.46,0.36,1,0.11,1.55c-0.17,0.37-0.38,0.73-0.59,1.03l10.13-1.33C44.71,41.42,35.06,40.17,35.06,40.17z"/>
  <path fill="#3F3F3F" d="M33.43,43.4c0,0,0.81-0.86,1.28-1.89c0.47-1.03-0.94-2.01-0.94-2.01l14.81,1.91L33.43,43.4L33.43,43.4z"/>
  <path fill="#333333" d="M30.22,43.83c-0.55,0-1.15-0.05-1.58-0.22c-0.39-0.15-1.17-0.46-1.21-1.2l-1.97-19.66
    c-0.03-0.33,0.1-0.66,0.36-0.88L26,21.73c-0.01-0.01-0.03-0.02-0.04-0.03c-0.05-0.05-0.1-0.1-0.14-0.16
    c-1.16-1.13-1.83-2.68-1.83-4.29c0-1.6,0.62-3.11,1.74-4.24c1.12-1.13,2.62-1.76,4.22-1.76h0.01c1.59,0,3.09,0.62,4.21,1.75
    s1.75,2.64,1.75,4.24c0,1.55-0.61,3.04-1.69,4.16c0.05,0.14,0.07,0.28,0.06,0.42c-0.1,1.48-1.1,20.03-1.11,20.22
    c-0.01,0.18-0.07,0.36-0.17,0.51c-0.59,0.87-0.73,0.96-0.87,1.05c-0.16,0.1-0.39,0.21-0.72,0.18
    C31.12,43.79,30.68,43.83,30.22,43.83L30.22,43.83z M29.42,42.22v0.02c0,0.04,0.01,0.08,0,0.12
    C29.43,42.31,29.42,42.26,29.42,42.22L29.42,42.22z M29.37,41.74c0.24,0.09,0.98,0.11,1.71,0.04c0.04-0.05,0.07-0.1,0.11-0.15
    c0.12-2.19,0.83-15.48,1.05-19.13c-0.39-0.09-0.69-0.42-0.75-0.81c-0.06-0.41,0.13-0.81,0.48-1.02l0.12-0.08
    c0.06-0.04,0.12-0.09,0.19-0.14c0.07-0.05,0.12-0.09,0.15-0.12c0.02-0.03,0.05-0.05,0.08-0.07c0.9-0.77,1.41-1.87,1.41-3.03
    c0-1.07-0.41-2.07-1.16-2.83c-0.75-0.75-1.74-1.16-2.79-1.16c-1.06,0-2.05,0.42-2.8,1.17c-0.75,0.76-1.16,1.76-1.16,2.83
    c0,1.15,0.49,2.21,1.36,2.99c0.03,0.02,0.05,0.05,0.07,0.07l0.21,0.16c0.06,0.04,0.11,0.09,0.17,0.13
    c0.09,0.06,0.19,0.11,0.29,0.16c0.41,0.21,0.66,0.69,0.55,1.14c-0.07,0.31-0.27,0.56-0.53,0.69l-0.62,0.5L29.37,41.74L29.37,41.74z
    "/>
  <path fill="#FABD2C" d="M26.45,22.64l5.6-1.2c0,0,1.12,0.24,1.14,0.24l-1.43,20.54l-0.35,0.53c0,0-1.68,0.21-2.41-0.08
    c-0.58-0.23-0.58-0.34-0.58-0.34L26.45,22.64z"/>
  <path fill="#FABD2C" d="M32.52,22.7l0.73-1.06c0,0,0.04,0.01,0.03,0.09c-0.1,1.5-1.11,20.23-1.11,20.23s-0.47,0.7-0.58,0.76
    c-0.1,0.06-0.25,0.01-0.25,0.01s0.18-0.01,0.18-0.3C31.53,42.24,32.52,22.7,32.52,22.7L32.52,22.7z"/>
  <path opacity="0.5" fill="#CE592C" enable-background="new    " d="M32.52,22.7l0.73-1.06c0,0,0.04,0.01,0.03,0.09
    c-0.1,1.5-1.11,20.23-1.11,20.23s-0.47,0.7-0.58,0.76c-0.1,0.06-0.25,0.01-0.25,0.01s0.18-0.01,0.18-0.3
    C31.53,42.24,32.52,22.7,32.52,22.7L32.52,22.7z"/>
  <path fill="#CE592C" d="M33.25,21.65l-0.73,1.05l-6.07-0.06l1.2-0.97"/>
  <ellipse opacity="0.5" fill="#CE592C" enable-background="new    " cx="30" cy="22.01" rx="2.13" ry="0.52"/>
  <path fill="#CE592C" d="M31.24,33.25c-0.13,0.72,0.11,1.68-1.06,1.87c-0.83,0.13-0.88-0.7-0.94-0.99c0,0-0.47-3.98-0.63-6.18
    c0,0-0.23-3.69-0.01-4c0.37-0.52,0.92-0.63,1.45-0.49c0.61,0.17,1.52,0.64,1.36,2c0,0-0.01,3.9,0,4.66
    C31.41,31.06,31.24,33.25,31.24,33.25L31.24,33.25z"/>
  <path fill="#E58A2C" d="M30.64,33.53c0.02,0.57,0.31,1.45-0.87,1.59c-1.17,0.14-1.21-0.86-1.27-1.14c0,0-0.42-2.16-0.58-4.36
    c0,0-0.21-3.83-0.17-4.28c0.14-1.66,1.05-2.11,1.88-1.87c0.61,0.17,1.24,0.65,1.08,2.01c0,0-0.03,3.94-0.02,4.69
    C30.71,31.1,30.64,33.53,30.64,33.53z"/>
  <path fill="#FABD2C" d="M30.64,33.53c0.02,0.57,0.3,1.41-0.87,1.59c-0.83,0.13-0.88-0.7-0.94-0.99c0,0-0.47-3.98-0.63-6.18
    c0,0-0.23-3.69,0-4c0.37-0.52,0.92-0.63,1.45-0.49c0.61,0.17,1.24,0.65,1.08,2.01c0,0-0.03,3.94-0.02,4.69
    C30.71,31.1,30.64,33.53,30.64,33.53L30.64,33.53z"/>
  <ellipse fill="#FABD2C" cx="29.95" cy="17.23" rx="4.96" ry="5"/>
  <path opacity="0.25" fill="#CE592C" enable-background="new    " d="M29.97,21.74c1.19,0,2.3-0.27,3.24-0.75
    c-0.87,0.77-2.01,1.24-3.26,1.24c-1.28,0-2.44-0.49-3.32-1.28C27.59,21.45,28.74,21.74,29.97,21.74z"/>
</svg>
