<svg xmlns="http://www.w3.org/2000/svg" width="60px" height="60px" viewBox="0 0 60 60">
  <path opacity="0.3" fill="#111111" enable-background="new    " d="M30.33,27.19c-11.24,0-20.35,6.46-20.35,14.42
    s9.11,14.42,20.35,14.42s20.35-6.46,20.35-14.42S41.57,27.19,30.33,27.19z M30.21,55.03c-10.75,0-19.47-6.06-19.47-13.53
    s8.72-13.53,19.47-13.53s19.47,6.06,19.47,13.53S40.96,55.03,30.21,55.03z"/>
  <ellipse opacity="0.1" fill="#111111" enable-background="new    " cx="30.21" cy="41.5" rx="19.47" ry="13.53"/>
  <path opacity="0.3" enable-background="new    " d="M29.65,44.14l8.24-3.85l-4.47-2.69"/>
  <path fill="#333333" d="M29.21,44.46c-0.16,0-0.31-0.03-0.46-0.09c-0.21-0.07-0.7-0.24-1.2-0.49c-0.74-0.37-1-1.07-1-1.54
    l-0.51-6.63c-0.37-0.32-0.61-0.82-0.71-1.49c-0.02-0.11-0.54-2.33-0.68-4.59c-0.01-0.69-0.03-3.9,0.01-4.37
    c0.05-0.67,0.2-1.24,0.45-1.69l-0.07-0.85c-0.04-0.48,0.27-0.91,0.73-1.04l0.14-0.04c-0.04-0.04-0.07-0.08-0.1-0.12
    c-1.16-1.13-1.83-2.68-1.83-4.29c0-1.6,0.62-3.11,1.74-4.24c1.13-1.14,2.61-1.76,4.22-1.76c1.59,0,3.09,0.62,4.21,1.75
    s1.74,2.64,1.75,4.24c0,1.59-0.64,3.11-1.77,4.24c0.05,0.02,0.09,0.03,0.14,0.06c0.36,0.18,0.6,0.64,0.58,1.04l-0.06,1.09
    c0.01,0.12,0.01,0.24,0.01,0.37c0.04,0.92,0.16,3.59,0.21,4.13c0.08,0.84,0.37,3.06,0.37,3.06l0.03,0.19
    c0.27,1.54-0.44,2.15-1.17,2.37c-0.17,3.07-0.31,5.61-0.31,5.76c-0.03,0.63-0.32,0.96-0.45,1.08c-0.85,0.93-0.9,0.96-1.02,1.04
    c-0.26,0.17-0.61,0.22-0.96,0.12c-0.03-0.01-0.06-0.01-0.09-0.02C31.4,41.92,31.4,41.98,31.4,42c-0.01,0.69-0.31,1.08-0.5,1.26
    c-0.83,0.85-0.91,0.91-0.95,0.95C29.73,44.38,29.47,44.46,29.21,44.46z M28.54,42.14c0.16,0.08,0.32,0.14,0.45,0.2
    c0.15-0.15,0.3-0.31,0.4-0.41c0.01-0.17,0.04-0.69,0.22-3.12c0.04-0.52,0.47-0.92,0.99-0.93h0.01c0.52,0,0.95,0.39,1,0.91
    l0.07,0.82c0.09-0.1,0.18-0.19,0.25-0.27c0.04-0.81,0.3-5.56,0.36-6.57c0.02-0.32,0.19-0.62,0.46-0.79
    c0.21-0.13,0.46-0.18,0.7-0.14c-0.01-0.04-0.01-0.07-0.02-0.1c-0.02-0.1-0.03-0.19-0.04-0.28c0,0-0.29-2.27-0.38-3.12
    c-0.07-0.7-0.21-4.15-0.21-4.3s-0.01-0.22-0.01-0.3V23.6l0.02-0.44l-1.25-0.36c-0.41-0.12-0.7-0.48-0.72-0.9s0.22-0.82,0.61-0.98
    c0.04-0.02,0.07-0.04,0.11-0.06l0.15-0.08c0.13-0.06,0.25-0.13,0.37-0.2l0.21-0.15l0.14-0.1l0.08-0.08
    c0.9-0.77,1.41-1.87,1.41-3.03c0-1.07-0.41-2.07-1.16-2.83c-0.75-0.75-1.74-1.16-2.79-1.16c-1.06,0-2.05,0.42-2.8,1.17
    c-0.75,0.76-1.16,1.76-1.16,2.83c0,1.15,0.49,2.21,1.36,2.99c0.03,0.02,0.05,0.05,0.07,0.07l0.22,0.16
    c0.05,0.04,0.11,0.09,0.16,0.12c0.1,0.07,0.21,0.12,0.32,0.17l0.2,0.1c0.04,0.02,0.09,0.05,0.13,0.07c0.05,0.02,0.1,0.03,0.15,0.05
    L28.76,21c0.42,0.14,0.7,0.53,0.69,0.97s-0.31,0.82-0.73,0.94l-1.6,0.45l0.03,0.37c0.02,0.25-0.06,0.5-0.21,0.7
    c-0.06,0.08-0.22,0.34-0.27,0.96c-0.02,0.26-0.02,2.31,0,4.15c0.13,2.03,0.63,4.16,0.63,4.19c0.01,0.03,0.03,0.15,0.03,0.18
    c0.01,0.05,0.02,0.16,0.04,0.24c0.36,0.14,0.61,0.47,0.64,0.86L28.54,42.14L28.54,42.14z M29.63,41.72
    C29.62,41.72,29.62,41.72,29.63,41.72C29.62,41.72,29.62,41.72,29.63,41.72z M32.06,39.2c-0.03,0.02-0.05,0.04-0.06,0.07
    C32.04,39.22,32.06,39.2,32.06,39.2z"/>
  <path fill="#FABD2C" d="M34.38,31.34c0.06,0.52,0.36,1.3-0.56,1.51c-0.92,0.21-1.03-0.7-1.1-0.95c0,0-0.65-1.97-0.95-3.96
    c0,0-0.33-3.44-0.33-3.85c-0.02-1.52,0.66-1.99,1.35-1.84c0.5,0.11,1.03,0.5,1.01,1.75c0,0,0.15,3.56,0.21,4.24
    C34.09,29.09,34.38,31.34,34.38,31.34z"/>
  <path fill="#CE592C" d="M34.38,31.34c0.06,0.52,0.36,1.3-0.56,1.51c-0.92,0.21-1.03-0.7-1.1-0.95c0,0-0.65-1.97-0.95-3.96
    c0,0-0.33-3.44-0.33-3.85c-0.02-1.52,0.66-1.99,1.35-1.84c0.5,0.11,1.03,0.5,1.01,1.75c0,0,0.15,3.56,0.21,4.24
    C34.09,29.09,34.38,31.34,34.38,31.34z"/>
  <path fill="#FABD2C" d="M26.04,22.64l4.31-1.2c0,0,3.41,1.02,3.43,1.02L32.8,39.77l-1.04,1.03c0,0-0.81-0.22-0.91-0.26
    c-0.1-0.03-0.1-0.18-0.1-0.18l-0.15-1.68l-0.7,4.1l-0.72,0.66c0,0-0.6-0.18-1.16-0.47c-0.45-0.23-0.45-0.65-0.45-0.65L26.04,22.64z
    "/>
  <path fill="#FABD2C" d="M29.92,23.71l3.89-1.29c0,0,0.03,0.01,0.03,0.09c-0.08,1.5-0.91,16.72-0.92,16.99s-0.12,0.37-0.12,0.37
    s-0.82,0.89-0.88,0.93c-0.06,0.04-0.17,0-0.17,0s0.08-0.04,0.09-0.23s-0.38-7.48-0.38-7.48c-0.01-0.37-0.07-0.52-0.23-0.52
    c-0.15,0-0.19,0.15-0.19,0.53c0,0-0.63,8.45-0.64,8.88s-0.2,0.56-0.2,0.56s-0.82,0.83-0.89,0.89c-0.08,0.06-0.19,0.01-0.19,0.01
    s0.14-0.01,0.14-0.3C29.25,42.94,29.92,23.71,29.92,23.71z"/>
  <path opacity="0.3" fill="#CE592C" enable-background="new    " d="M29.92,23.71l3.89-1.29c0,0,0.03,0.01,0.03,0.09
    c-0.08,1.5-0.91,16.72-0.92,16.99s-0.12,0.37-0.12,0.37s-0.82,0.89-0.88,0.93c-0.06,0.04-0.17,0-0.17,0s0.08-0.04,0.09-0.23
    s-0.38-7.48-0.38-7.48c-0.01-0.37-0.07-0.52-0.23-0.52c-0.15,0-0.19,0.15-0.19,0.53c0,0-0.63,8.45-0.64,8.88s-0.2,0.56-0.2,0.56
    s-0.82,0.83-0.89,0.89c-0.08,0.06-0.19,0.01-0.19,0.01s0.14-0.01,0.14-0.3C29.25,42.94,29.92,23.71,29.92,23.71z"/>
  <path fill="#CE592C" d="M33.82,22.42l-3.9,1.29l-3.88-1.07l4.36-1.2"/>
  <ellipse opacity="0.5" fill="#CE592C" enable-background="new    " cx="30.19" cy="22.4" rx="2.13" ry="0.52"/>
  <path fill="#CE592C" d="M25.92,25.66c0.04-1.67,0.72-2.46,1.44-2.22c0.81,0.27,1.29,1.03,1.21,2.4c0,0-0.07,3.73-0.03,4.48
    c0.05,0.93,0.27,3.4,0.27,3.4c0.05,0.57,0.33,1.44-0.68,1.63c-0.22,0.04-0.39-0.01-0.53-0.12l-0.28-0.43c0,0-0.97-2.72-1.21-4.91
    C26.11,29.87,25.91,26.11,25.92,25.66z"/>
  <path fill="#FABD2C" d="M28.16,33.53c0.02,0.57,0.27,1.45-0.76,1.59c-1.02,0.14-1.05-0.86-1.11-1.14c0,0-0.52-2.21-0.66-4.41
    c0,0-0.03-3.78,0.01-4.23c0.12-1.66,0.91-2.11,1.64-1.87c0.53,0.17,1.08,0.65,0.94,2.01c0,0-0.18,3.89-0.18,4.64
    C28.06,31.05,28.16,33.53,28.16,33.53z"/>
  <ellipse fill="#FABD2C" cx="29.94" cy="17.23" rx="4.96" ry="5"/>
  <path opacity="0.25" fill="#CE592C" enable-background="new    " d="M29.96,21.74c1.19,0,2.3-0.27,3.24-0.75
    c-0.87,0.77-2.01,1.24-3.26,1.24c-1.28,0-2.44-0.49-3.32-1.28C27.59,21.45,28.73,21.74,29.96,21.74z"/>
  <path opacity="0.8" fill="#CE592C" enable-background="new    " d="M32.76,22.77l-0.94,4.66l-0.76-4.1"/>
  <path opacity="0.25" fill="#CF572E" enable-background="new    " d="M28.14,33.53c0.04,1.16-0.54,0.95-0.82,0.81
    c-0.99-0.52-1.09-5.12-1.2-6.56c-0.07-0.97-0.16-3.58,0.78-4.26c0.55-0.21,1.04,0.42,1.09,0.51c0.19,0.31,0.29,0.77,0.22,1.45
    c0,0-0.18,3.89-0.18,4.64C28.04,31.05,28.14,33.53,28.14,33.53L28.14,33.53z"/>
  <path fill="#FFFFFF" d="M47.48,45.15C47.47,45.15,47.47,45.15,47.48,45.15l-15.9-0.08c-0.22,0-0.42-0.15-0.48-0.37
    s0.03-0.45,0.23-0.56c0.66-0.39,2.48-1.56,2.96-2.25c0.57-0.8,0.71-2.24,0.71-2.26c0.01-0.16,0.1-0.3,0.24-0.38
    c0.14-0.08,0.3-0.09,0.45-0.03l11.98,4.97c0.22,0.09,0.35,0.33,0.3,0.56C47.92,44.99,47.71,45.15,47.48,45.15z M33.25,44.09
    l11.68,0.06l-9.04-3.75c-0.11,0.59-0.34,1.45-0.79,2.08C34.75,42.98,33.97,43.59,33.25,44.09L33.25,44.09z"/>
  <path fill="#3F3F3F" d="M31.58,44.58c0,0,2.46-1.47,3.12-2.39c0.66-0.93,0.8-2.5,0.8-2.5l11.98,4.97L31.58,44.58z"/>
</svg>
