<svg xmlns="http://www.w3.org/2000/svg" width="60px" height="60px" viewBox="0 0 60 60">
  <path opacity="0.3" fill="#111111" enable-background="new    " d="M30.33,27.19c-11.24,0-20.35,6.46-20.35,14.42
    s9.11,14.42,20.35,14.42s20.35-6.46,20.35-14.42S41.57,27.19,30.33,27.19z M30.21,55.03c-10.75,0-19.47-6.06-19.47-13.53
    s8.72-13.53,19.47-13.53s19.47,6.06,19.47,13.53S40.96,55.03,30.21,55.03z"/>
  <ellipse opacity="0.1" fill="#111111" enable-background="new    " cx="30.21" cy="41.5" rx="19.47" ry="13.53"/>
  <path fill="#FFFFFF" d="M34.67,42.6c-0.11,0-0.22-0.04-0.32-0.11c-0.15-0.12-0.21-0.31-0.17-0.49c0-0.01,0.17-0.84-0.01-1.83
    c-0.08-0.43-1.23-1.06-2.26-1.39c-0.23-0.07-0.37-0.29-0.35-0.53s0.21-0.42,0.44-0.45l15.03-1.64c0.25-0.03,0.47,0.13,0.54,0.37
    c0.06,0.24-0.06,0.49-0.28,0.59l-12.42,5.44C34.8,42.59,34.73,42.6,34.67,42.6L34.67,42.6z M33.94,38.6
    c0.58,0.36,1.1,0.82,1.21,1.39c0.09,0.49,0.11,0.95,0.1,1.32l8.65-3.79L33.94,38.6L33.94,38.6z"/>
  <path fill="#3F3F3F" d="M34.66,42.1c0,0,0.22-0.92-0.01-2.03c-0.22-1.04-2.6-1.78-2.6-1.78l15.03-1.64
    C47.08,36.65,34.66,42.1,34.66,42.1z"/>
  <path fill="#333333" d="M30.91,44.46c-0.27,0-0.53-0.09-0.73-0.26c-0.04-0.03-0.12-0.1-0.95-0.95c-0.19-0.18-0.48-0.57-0.5-1.26
    c0-0.03,0-0.1-0.01-0.25c-0.05,0.01-0.08,0.02-0.08,0.02c-0.48,0.12-0.79-0.01-0.98-0.13c-0.11-0.07-0.16-0.1-1.07-1.09
    c-0.06-0.05-0.36-0.38-0.38-1.01c-0.01-0.18-0.22-4.03-0.44-8.03c-0.21-0.74-0.57-2.07-0.78-3.42c-0.06-0.64-0.34-3.56-0.34-3.99
    c-0.01-1.1,0.27-1.91,0.85-2.41c0.09-0.08,0.19-0.15,0.29-0.2C24.65,20.35,24,18.82,24,17.23c0-1.6,0.62-3.11,1.74-4.24
    c1.12-1.13,2.62-1.76,4.22-1.76h0.01c1.59,0,3.09,0.62,4.21,1.75c1.13,1.13,1.75,2.64,1.75,4.24c0,1.64-0.68,3.21-1.88,4.35
    c0,0,0,0.01-0.01,0.01l0.33,0.09c0.46,0.13,0.76,0.56,0.73,1.04l-0.31,4.05c-0.1,2.32-0.12,3.1-0.12,3.34
    c0.01,0.92,0.11,3.37,0.11,3.37l0.01,0.2c0.03,0.4,0.12,1.47-0.7,2.06l-0.51,6.67c0,0.4-0.26,1.09-0.99,1.46
    c-0.49,0.25-0.98,0.42-1.2,0.49C31.22,44.43,31.07,44.46,30.91,44.46L30.91,44.46z M30.72,41.93c0.1,0.1,0.25,0.26,0.4,0.41
    c0.14-0.05,0.29-0.12,0.45-0.2l0.55-7.13c0.03-0.4,0.3-0.74,0.67-0.87c0-0.09-0.01-0.21-0.02-0.29c-0.01-0.1-0.02-0.2-0.02-0.29
    c0,0-0.1-2.5-0.11-3.44c0-0.38,0.04-1.52,0.12-3.48l0.25-3.26l-1.72-0.48c-0.42-0.12-0.72-0.5-0.73-0.93
    c-0.01-0.44,0.26-0.83,0.67-0.98l0.19-0.06c0.05-0.02,0.11-0.05,0.17-0.08l0.11-0.06c0.13-0.06,0.26-0.13,0.37-0.2
    c0.06-0.04,0.13-0.09,0.2-0.15c0.07-0.05,0.11-0.09,0.15-0.11c0.02-0.03,0.05-0.05,0.08-0.07c0.9-0.77,1.41-1.87,1.41-3.03
    c0-1.07-0.41-2.07-1.16-2.83c-0.75-0.75-1.74-1.16-2.79-1.16c-1.06,0-2.05,0.42-2.8,1.17C26.41,15.17,26,16.17,26,17.24
    c0,1.15,0.49,2.21,1.37,2.99c0.03,0.02,0.05,0.05,0.08,0.07l0.22,0.16c0.05,0.04,0.11,0.09,0.16,0.12
    c0.11,0.07,0.22,0.12,0.33,0.18l0.18,0.09c0.05,0.02,0.09,0.05,0.14,0.07l0.14,0.07c0.39,0.16,0.61,0.54,0.58,0.96
    c-0.02,0.43-0.35,0.77-0.76,0.89l-1.23,0.36c-0.14,0.04-0.28,0.05-0.43,0.03c0,0.03-0.13,0.24-0.12,0.84c0,0.24,0.17,2.1,0.33,3.77
    c0.19,1.25,0.55,2.55,0.74,3.21c0.02,0.07,0.04,0.15,0.04,0.23c0.33,6.01,0.42,7.66,0.44,8.06c0.07,0.08,0.16,0.17,0.25,0.27
    l0.07-0.82c0.05-0.52,0.48-0.91,1-0.91h0.01c0.52,0,0.95,0.41,0.99,0.93C30.68,41.19,30.72,41.76,30.72,41.93L30.72,41.93z
     M27.99,39.13l0.1,0.1L27.99,39.13z"/>
  <path fill="#E58A2C" d="M28.59,31.34c0.06,0.52,0.36,1.3-0.56,1.51c-0.92,0.21-1.03-0.7-1.1-0.95c0,0-0.65-1.97-0.95-3.96
    c0,0-0.33-3.44-0.33-3.85c-0.02-1.52,0.66-1.99,1.35-1.84c0.5,0.11,1.03,0.5,1.01,1.75c0,0,0.15,3.56,0.21,4.24
    C28.3,29.09,28.59,31.34,28.59,31.34z"/>
  <path fill="#E58A2C" d="M34.08,22.64l-4.31-1.2c0,0-3.41,1.02-3.43,1.02l0.98,17.31l1.04,1.03c0,0,0.81-0.22,0.91-0.26
    c0.1-0.03,0.1-0.18,0.1-0.18l0.15-1.68l0.7,4.1l0.72,0.66c0,0,0.6-0.18,1.16-0.47c0.45-0.23,0.45-0.65,0.45-0.65L34.08,22.64
    L34.08,22.64z"/>
  <path fill="#FABD2C" d="M30.19,23.71l-3.89-1.29c0,0-0.03,0.01-0.03,0.09c0.08,1.5,0.91,16.72,0.92,16.99s0.12,0.37,0.12,0.37
    s0.82,0.89,0.88,0.93s0.17,0,0.17,0s-0.08-0.04-0.09-0.23s0.38-7.48,0.38-7.48c0.01-0.37,0.07-0.52,0.23-0.53
    c0.15,0,0.19,0.15,0.19,0.53c0,0,0.63,8.45,0.64,8.88c0.01,0.43,0.2,0.56,0.2,0.56s0.82,0.83,0.89,0.89
    c0.08,0.06,0.19,0.01,0.19,0.01s-0.14-0.01-0.14-0.3C30.87,42.94,30.19,23.71,30.19,23.71z"/>
  <path fill="#FABD2C" d="M30.19,23.71l-3.89-1.29c0,0-0.03,0.01-0.03,0.09c0.08,1.5,0.91,16.72,0.92,16.99s0.12,0.37,0.12,0.37
    s0.82,0.89,0.88,0.93s0.17,0,0.17,0s-0.08-0.04-0.09-0.23s0.38-7.48,0.38-7.48c0.01-0.37,0.07-0.52,0.23-0.53
    c0.15,0,0.19,0.15,0.19,0.53c0,0,0.63,8.45,0.64,8.88c0.01,0.43,0.2,0.56,0.2,0.56s0.82,0.83,0.89,0.89
    c0.08,0.06,0.19,0.01,0.19,0.01s-0.14-0.01-0.14-0.3C30.87,42.94,30.19,23.71,30.19,23.71z"/>
  <path fill="#CE592C" d="M26.3,22.42l3.89,1.29l3.89-1.07l-4.37-1.2"/>
  <ellipse opacity="0.5" fill="#CE592C" enable-background="new    " cx="29.93" cy="22.4" rx="2.13" ry="0.52"/>
  <path fill="#FABD2C" d="M33.76,33.53c0.02,0.57,0.27,1.45-0.76,1.59c-1.02,0.14-1.05-0.86-1.11-1.14c0,0-0.52-2.21-0.66-4.41
    c0,0-0.03-3.78,0.01-4.23c0.12-1.66,0.91-2.11,1.64-1.87c0.53,0.17,1.08,0.65,0.94,2.01c0,0-0.18,3.89-0.18,4.64
    C33.65,31.05,33.76,33.53,33.76,33.53z"/>
  <ellipse fill="#FABD2C" cx="29.95" cy="17.23" rx="4.96" ry="5"/>
  <path opacity="0.25" fill="#CE592C" enable-background="new    " d="M29.98,21.74c1.19,0,2.3-0.27,3.24-0.75
    c-0.87,0.77-2.01,1.24-3.26,1.24c-1.28,0-2.44-0.49-3.32-1.28C27.6,21.45,28.75,21.74,29.98,21.74z"/>
  <path opacity="0.25" fill="#CF572E" enable-background="new    " d="M33.74,33.53c0.04,1.16-0.54,0.95-0.82,0.81
    c-0.99-0.52-1.09-5.12-1.2-6.56c-0.07-0.97-0.16-3.58,0.78-4.26c0.55-0.21,1.04,0.42,1.09,0.51c0.19,0.31,0.29,0.77,0.22,1.45
    c0,0-0.18,3.89-0.18,4.64C33.63,31.05,33.74,33.53,33.74,33.53z"/>
</svg>
