<svg xmlns="http://www.w3.org/2000/svg" width="60px" height="60px" viewBox="0 0 60 60">
  <g>
    <path opacity="0.3" fill="#111111" enable-background="new    " d="M30.33,27.2c-11.24,0-20.35,6.46-20.35,14.42
      s9.11,14.42,20.35,14.42s20.35-6.46,20.35-14.42C50.68,33.65,41.57,27.2,30.33,27.2z M30.21,55.04
      c-10.75,0-19.47-6.06-19.47-13.53s8.72-13.53,19.47-13.53s19.47,6.06,19.47,13.53S40.96,55.04,30.21,55.04z"/>
    <ellipse opacity="0.1" fill="#111111" enable-background="new    " cx="30.21" cy="41.51" rx="19.47" ry="13.53"/>
  </g>
  <g>
    <path fill="#FFFFFF" d="M25.23,41.88c-0.14,0-0.27-0.06-0.37-0.16l-7.88-8.59c-0.16-0.17-0.18-0.43-0.04-0.62
      c0.13-0.19,0.38-0.26,0.6-0.18l13.95,5.63c0.22,0.09,0.35,0.33,0.3,0.57s-0.25,0.41-0.51,0.4c-2.16-0.08-4.25,0.11-4.56,0.42
      c-0.49,0.49-0.89,1.73-1,2.16c-0.05,0.18-0.19,0.32-0.36,0.36C25.31,41.88,25.27,41.88,25.23,41.88z M19.21,34.08l5.81,6.33
      c0.21-0.58,0.55-1.33,0.99-1.77c0.43-0.43,1.61-0.62,2.77-0.69L19.21,34.08z"/>
    <path fill="#3F3F3F" d="M25.23,41.38c0,0,0.38-1.63,1.13-2.39c0.75-0.75,4.93-0.57,4.93-0.57l-13.95-5.63L25.23,41.38z"/>
    <path fill="#333333" d="M27.48,44.47c-0.26,0-0.52-0.09-0.7-0.28c-0.12-0.12-0.75-0.76-0.99-1.1c-0.37-0.51-0.41-1.07-0.41-1.3
      l-0.36-6.17c-0.96-0.56-0.9-1.66-0.88-2.07l0.01-0.14c0-0.01,0.1-2.46,0.11-3.38c0.01-0.75-0.07-4.55-0.07-4.55
      c-0.06-0.55-0.01-1.06,0.15-1.51l-0.06-1.08c-0.03-0.1-0.04-0.2-0.03-0.31c0.03-0.45,0.33-0.84,0.78-0.93l0.79-0.16
      c-1.15-1.13-1.8-2.67-1.81-4.26c0-1.6,0.62-3.11,1.74-4.24c1.12-1.13,2.62-1.76,4.22-1.76h0.01c1.59,0,3.09,0.62,4.21,1.75
      c1.13,1.13,1.75,2.64,1.75,4.24c0,1.52-0.58,2.97-1.62,4.09l0.46,0.13c0.16,0.03,0.31,0.1,0.43,0.19c0.51,0.3,1.17,0.99,1.14,2.61
      c0,0.43-0.28,3.35-0.34,3.93c-0.31,2.06-0.75,3.97-0.77,4.05c-0.04,0.25-0.1,0.6-0.3,0.92c-0.22,3.53-0.41,6.62-0.41,6.76
      c-0.04,0.61-0.39,1.01-0.7,1.19c-1.32,0.91-1.4,0.94-1.52,0.99c-0.06,0.02-0.14,0.04-0.23,0.06c-0.11,0.03-0.22,0.03-0.33,0.02
      c-0.14-0.01-0.27-0.03-0.27-0.03c-0.16-0.03-0.31-0.1-0.43-0.19c-0.11-0.04-0.23-0.09-0.34-0.13c-0.01,0.09-0.02,0.15-0.02,0.18
      c-0.02,0.72-0.45,1.19-0.83,1.39c-0.21,0.12-1.48,0.86-1.6,0.92c-0.19,0.1-0.41,0.13-0.63,0.15
      C27.57,44.47,27.52,44.47,27.48,44.47z M26.13,33.94c0.01,0,0.02,0,0.04,0.01c0.45,0.09,0.79,0.47,0.81,0.92l0.4,6.85v0.12
      c0,0.01,0.01,0.07,0.03,0.09c0.05,0.07,0.18,0.22,0.33,0.38c0.32-0.18,0.72-0.42,0.95-0.55c0.04-0.36,0.17-1.41,0.66-4.95
      c0.07-0.5,0.49-0.86,0.99-0.86h0.03c0.51,0.01,0.93,0.41,0.97,0.91l0.28,3.18c0.05,0.02,0.09,0.03,0.14,0.05
      c0.24-0.16,0.56-0.38,0.77-0.52c0.05-0.82,0.23-3.69,0.42-6.86c0.01-0.24,0.11-0.46,0.27-0.63c0.01-0.03,0.01-0.06,0.01-0.09
      c0.02-0.1,0.03-0.18,0.05-0.25c0,0,0.43-1.88,0.72-3.79c0.15-1.61,0.32-3.47,0.32-3.71c0.01-0.55-0.11-0.8-0.15-0.86
      c-0.05,0.04-0.1,0.08-0.15,0.11c-0.1,0.07-0.22,0.12-0.34,0.14l-1.31,0.27c-0.29,0.06-0.6-0.01-0.83-0.2s-0.37-0.48-0.37-0.78
      c0-0.2,0.06-0.39,0.17-0.55c-0.13-0.15-0.21-0.35-0.23-0.55c-0.04-0.41,0.18-0.8,0.55-0.99c0.19-0.1,0.31-0.16,0.43-0.23
      c0.07-0.05,0.14-0.1,0.21-0.16c0.06-0.04,0.1-0.08,0.14-0.1c0.02-0.03,0.05-0.05,0.08-0.07c0.9-0.77,1.41-1.88,1.41-3.03
      c0-1.07-0.41-2.07-1.16-2.83c-0.75-0.75-1.74-1.17-2.79-1.17c-1.06,0-2.05,0.42-2.8,1.17c-0.75,0.76-1.16,1.76-1.16,2.83
      c0,1.15,0.49,2.21,1.37,2.99c0.03,0.02,0.05,0.05,0.08,0.08l0.21,0.16c0.05,0.04,0.11,0.09,0.16,0.12
      c0.11,0.07,0.22,0.13,0.34,0.18l0.17,0.09c0.05,0.03,0.1,0.05,0.15,0.08c0.06,0.02,0.11,0.04,0.17,0.05l0.13,0.04
      c0.43,0.14,0.72,0.55,0.7,1.01c-0.02,0.45-0.35,0.84-0.8,0.93l-2.36,0.48l0.04,0.65c0.01,0.17-0.02,0.33-0.09,0.49
      c-0.06,0.12-0.11,0.35-0.07,0.8c0,0.08,0.08,3.93,0.08,4.68c-0.01,0.94-0.11,3.44-0.11,3.44l-0.01,0.16
      C26.13,33.75,26.13,33.85,26.13,33.94L26.13,33.94z M32.74,39.41c-0.03,0.01-0.05,0.03-0.07,0.05
      C32.72,39.43,32.74,39.41,32.74,39.41z"/>
    <path fill="#FDBF2D" d="M25.26,22.64l4.46-0.83c0,0,2.42,0.35,2.43,0.35l0.46,17.98l-0.78,1.03c0,0-1.02-0.38-1.1-0.41
      c-0.08-0.03-0.07-0.18-0.07-0.18L30,33.05l-1.46,9.74l-1.04,0.7c0,0-0.68-0.69-0.89-0.98c-0.24-0.33-0.22-0.73-0.22-0.73
      L25.26,22.64z"/>
    <path fill="#CE592C" d="M25.55,33.57c-0.01,0.57-0.14,1.3,0.87,1.46c0.74,0.12,0.75-0.12,1-1.14c0,0,0.44-2.51,0.55-4.71
      c0,0,0.13-3.31,0.09-3.76c-0.15-1.66-0.94-2.09-1.67-1.85c-0.53,0.18-1.07,0.66-0.91,2.02c0,0,0.13,3.82,0.13,4.57
      C25.63,31.09,25.55,33.57,25.55,33.57z"/>
    <path fill="#FABD2C" d="M25.15,33.46c-0.02,0.57-0.16,1.3,0.85,1.48c0.74,0.13,0.75-0.11,1.02-1.13c0,0,0.47-2.5,0.61-4.71
      c0,0,0.18-3.31,0.14-3.76c-0.12-1.66-0.91-2.11-1.64-1.87c-0.53,0.17-1.08,0.65-0.94,2.01c0,0,0.08,3.82,0.07,4.58
      C25.25,30.98,25.15,33.46,25.15,33.46z"/>
    <path opacity="0.3" fill="#CE592C" enable-background="new    " d="M25.15,33.46c-0.02,0.57-0.16,1.3,0.85,1.48
      c0.74,0.13,0.75-0.11,1.02-1.13c0,0,0.47-2.5,0.61-4.71c0,0,0.18-3.31,0.14-3.76c-0.12-1.66-0.91-2.11-1.64-1.87
      c-0.53,0.17-1.08,0.65-0.94,2.01c0,0,0.08,3.82,0.07,4.58C25.25,30.98,25.15,33.46,25.15,33.46z"/>
    <path fill="#FDBF2D" d="M25.15,33.46c-0.04,1.16,0.68,1.07,0.93,0.87c0.63-0.5,0.71-5.21,0.82-6.64c0.07-0.97-0.09-3.4-0.4-4.17
      c-0.55-0.21-1.04,0.42-1.09,0.51c-0.19,0.31-0.29,0.77-0.22,1.45c0,0,0.08,3.82,0.07,4.58C25.25,30.98,25.15,33.46,25.15,33.46
      L25.15,33.46z"/>
    <path fill="#E58A2C" d="M32.58,31.45c-0.01,0.67-0.2,1.27,0.73,1.43c0.91,0.15,0.86-0.61,0.93-0.87c0,0,0.45-1.92,0.75-3.91
      c0,0,0.33-3.44,0.33-3.85c0.02-1.52-0.66-1.99-1.35-1.84c-0.5,0.11-1.03,0.5-1.01,1.75c0,0-0.15,3.56-0.21,4.24
      C32.67,29.24,32.58,31.45,32.58,31.45z"/>
    <path fill="#FABD2C" d="M28.38,23.71l6.17-1.29c0,0,0.05,0.01,0.04,0.09c-0.13,1.5-1.07,17.08-1.09,17.34
      c-0.02,0.27-0.19,0.37-0.19,0.37s-1.3,0.89-1.39,0.93s-0.27,0-0.27,0s0.13-0.04,0.14-0.23c0.02-0.19-0.3-7.46-0.3-7.46
      c-0.01-0.37-0.11-0.52-0.36-0.53c-0.24,0-0.29,0.15-0.31,0.53c0,0-1.14,8.05-1.15,8.48s-0.31,0.56-0.31,0.56s-1.47,0.86-1.59,0.92
      s-0.3,0.01-0.3,0.01s0.22-0.01,0.22-0.3C27.69,42.94,28.38,23.71,28.38,23.71L28.38,23.71z"/>
    <path opacity="0.3" fill="#CE592C" enable-background="new    " d="M28.38,23.71l6.17-1.29c0,0,0.05,0.01,0.04,0.09
      c-0.13,1.5-1.07,17.08-1.09,17.34c-0.02,0.27-0.19,0.37-0.19,0.37s-1.3,0.89-1.39,0.93s-0.27,0-0.27,0s0.13-0.04,0.14-0.23
      c0.02-0.19-0.3-7.46-0.3-7.46c-0.01-0.37-0.11-0.52-0.36-0.53c-0.24,0-0.29,0.15-0.31,0.53c0,0-1.14,8.05-1.15,8.48
      s-0.31,0.56-0.31,0.56s-1.47,0.86-1.59,0.92s-0.3,0.01-0.3,0.01s0.22-0.01,0.22-0.3C27.69,42.94,28.38,23.71,28.38,23.71
      L28.38,23.71z"/>
    <path fill="#CE592C" d="M34.51,22.42l-6.14,1.29l-3.15-1.07l5.88-1.2"/>
    <ellipse opacity="0.5" fill="#CE592C" enable-background="new    " cx="30.05" cy="22.41" rx="2.25" ry="0.43"/>
    <ellipse fill="#FABD2C" cx="29.95" cy="17.23" rx="4.96" ry="5"/>
    <path opacity="0.25" fill="#CE592C" enable-background="new    " d="M29.98,21.74c1.19,0,2.3-0.27,3.24-0.75
      c-0.87,0.77-2.01,1.24-3.26,1.24c-1.28,0-2.44-0.49-3.32-1.28C27.6,21.45,28.75,21.74,29.98,21.74L29.98,21.74z"/>
  </g>
</svg>
