<svg xmlns="http://www.w3.org/2000/svg" width="60px" height="60px" viewBox="0 0 60 60">
  <path opacity="0.3" fill="#111111" enable-background="new    " d="M30.33,27.19c-11.24,0-20.35,6.46-20.35,14.42
    s9.11,14.42,20.35,14.42s20.35-6.46,20.35-14.42C50.68,33.64,41.57,27.19,30.33,27.19z M30.21,55.03
    c-10.75,0-19.47-6.06-19.47-13.53s8.72-13.53,19.47-13.53s19.47,6.06,19.47,13.53S40.96,55.03,30.21,55.03z"/>
  <ellipse opacity="0.1" fill="#111111" enable-background="new    " cx="30.21" cy="41.5" rx="19.47" ry="13.53"/>
  <path fill="#FFFFFF" d="M35.19,41.88c-0.04,0-0.08,0-0.12-0.01c-0.18-0.04-0.32-0.18-0.36-0.36c-0.12-0.44-0.52-1.68-1-2.16
    c-0.31-0.31-2.39-0.5-4.56-0.42c-0.22,0.02-0.46-0.16-0.51-0.4c-0.05-0.24,0.08-0.48,0.3-0.57l13.95-5.63
    c0.22-0.09,0.47-0.01,0.6,0.18s0.12,0.45-0.04,0.62l-7.88,8.59C35.47,41.82,35.33,41.88,35.19,41.88L35.19,41.88z M31.64,37.94
    c1.16,0.07,2.34,0.26,2.77,0.69c0.44,0.44,0.78,1.19,1,1.77l5.81-6.33L31.64,37.94z"/>
  <path fill="#3F3F3F" d="M35.19,41.38c0,0-0.38-1.63-1.13-2.39c-0.75-0.75-4.93-0.57-4.93-0.57l13.95-5.63L35.19,41.38L35.19,41.38z
    "/>
  <path fill="#333333" d="M32.56,44.49c-0.09,0-0.17-0.01-0.26-0.03c-0.21-0.02-0.37-0.08-0.48-0.14c-0.12-0.06-1.39-0.8-1.6-0.93
    c-0.39-0.2-0.81-0.67-0.84-1.41c0-0.03-0.01-0.08-0.02-0.16c-0.12,0.04-0.25,0.09-0.37,0.14c-0.11,0.09-0.25,0.16-0.4,0.18
    c-0.04,0.01-0.14,0.02-0.26,0.03c-0.09,0.01-0.19,0.01-0.28-0.01c-0.11-0.01-0.21-0.04-0.31-0.08s-0.18-0.07-1.57-1.03
    c-0.24-0.13-0.59-0.54-0.63-1.13c-0.01-0.12-0.2-3.22-0.42-6.77c-0.2-0.32-0.25-0.65-0.28-0.83c-0.04-0.17-0.47-2.07-0.78-4.08
    c-0.06-0.64-0.34-3.56-0.34-3.99c-0.02-1.62,0.64-2.32,1.14-2.61c0.14-0.12,0.32-0.19,0.5-0.21l0.28-0.08
    c-1.06-1.11-1.65-2.58-1.65-4.11c0-1.6,0.62-3.11,1.74-4.24c1.12-1.13,2.62-1.76,4.22-1.76h0.01c1.59,0,3.09,0.62,4.21,1.75
    c1.13,1.13,1.75,2.64,1.75,4.24c0,1.59-0.64,3.12-1.78,4.25l0.9,0.19c0.44,0.09,0.77,0.47,0.8,0.92c0.01,0.14-0.01,0.28-0.06,0.41
    l-0.06,0.99c0.16,0.45,0.21,0.98,0.14,1.59c0,0-0.07,3.73-0.07,4.47c0.01,0.92,0.11,3.37,0.11,3.37l0.01,0.13
    c0.02,0.41,0.08,1.51-0.88,2.08l-0.36,6.17c0,0.22-0.04,0.79-0.41,1.3c-0.25,0.34-0.87,0.97-0.99,1.1
    C33.08,44.39,32.82,44.49,32.56,44.49L32.56,44.49z M31.36,41.75c0.23,0.13,0.63,0.37,0.95,0.55c0.15-0.16,0.28-0.31,0.33-0.38
    c0.01-0.02,0.03-0.08,0.03-0.11l0.4-6.94c0.03-0.46,0.36-0.84,0.81-0.92c0.01,0,0.02,0,0.04-0.01c0-0.08,0-0.19-0.01-0.27
    l-0.01-0.16c0,0-0.1-2.5-0.11-3.44c-0.01-0.76,0.07-4.6,0.07-4.6c0.05-0.53-0.01-0.76-0.06-0.88c-0.07-0.15-0.11-0.32-0.1-0.49
    l0.04-0.65l-2.43-0.5c-0.44-0.09-0.77-0.47-0.8-0.92c-0.03-0.45,0.25-0.86,0.68-1.01l0.11-0.04c0.04-0.01,0.08-0.03,0.12-0.04
    c0.06-0.02,0.11-0.05,0.17-0.08l0.11-0.06c0.13-0.06,0.26-0.13,0.37-0.2c0.06-0.04,0.13-0.09,0.19-0.14
    c0.07-0.05,0.12-0.09,0.16-0.12c0.02-0.03,0.05-0.05,0.08-0.07c0.9-0.77,1.41-1.87,1.41-3.03c0-1.07-0.41-2.07-1.16-2.83
    c-0.75-0.75-1.74-1.16-2.79-1.16c-1.06,0-2.05,0.42-2.8,1.17C26.41,15.18,26,16.18,26,17.25c0,1.15,0.49,2.21,1.37,2.99
    c0.03,0.02,0.05,0.05,0.08,0.07l0.12,0.09c0,0,0.08,0.06,0.09,0.07c0.06,0.05,0.11,0.09,0.17,0.13c0.11,0.07,0.22,0.12,0.33,0.18
    l0.14,0.08c0.35,0.2,0.58,0.61,0.53,1.01c-0.02,0.16-0.07,0.31-0.15,0.45c0.13,0.17,0.21,0.39,0.21,0.62c0,0.3-0.14,0.59-0.37,0.78
    s-0.54,0.27-0.83,0.21l-1.31-0.27c-0.14-0.03-0.27-0.09-0.38-0.17c-0.02-0.01-0.04-0.03-0.05-0.04c-0.02-0.02-0.04-0.03-0.06-0.05
    c0,0-0.01,0-0.02,0.01c-0.02,0.03-0.15,0.27-0.14,0.85c0,0.24,0.17,2.1,0.33,3.77c0.29,1.87,0.72,3.76,0.73,3.78
    s0.02,0.11,0.04,0.2c0,0.03,0.01,0.06,0.01,0.09c0.16,0.17,0.26,0.39,0.27,0.63c0.2,3.16,0.37,6.03,0.42,6.86
    c0.22,0.15,0.53,0.36,0.77,0.52c0.04-0.02,0.09-0.03,0.14-0.05l0.28-3.18c0.04-0.51,0.46-0.9,0.97-0.91
    c0.56-0.02,0.95,0.36,1.02,0.86C31.19,40.33,31.33,41.39,31.36,41.75L31.36,41.75z M27.24,39.36c0.01,0.01,0.04,0.03,0.1,0.07
    C27.3,39.41,27.27,39.38,27.24,39.36z"/>
  <path fill="#E58A2C" d="M34.79,22.64l-4.46-0.83c0,0-2.42,0.35-2.43,0.35l-0.46,17.98l0.78,1.03c0,0,1.02-0.38,1.1-0.41
    s0.07-0.18,0.07-0.18l0.66-7.54l1.46,9.74l1.04,0.7c0,0,0.68-0.69,0.89-0.98c0.24-0.33,0.22-0.73,0.22-0.73L34.79,22.64
    L34.79,22.64z"/>
  <path fill="#FABD2C" d="M34.9,33.46c0.02,0.57,0.16,1.3-0.85,1.48c-0.74,0.13-0.75-0.11-1.02-1.13c0,0-0.47-2.5-0.61-4.71
    c0,0-0.18-3.31-0.14-3.76c0.12-1.66,0.91-2.11,1.64-1.87c0.53,0.17,1.08,0.65,0.94,2.01c0,0-0.08,3.82-0.07,4.58
    C34.8,30.98,34.9,33.46,34.9,33.46L34.9,33.46z"/>
  <path opacity="0.25" fill="#CF572E" enable-background="new    " d="M34.9,33.46c0.04,1.16-0.68,1.07-0.93,0.87
    c-0.63-0.5-0.71-5.21-0.82-6.64c-0.07-0.97,0.09-3.4,0.4-4.17c0.55-0.21,1.04,0.42,1.09,0.51c0.19,0.31,0.29,0.77,0.22,1.45
    c0,0-0.08,3.82-0.07,4.58C34.8,30.98,34.9,33.46,34.9,33.46L34.9,33.46z"/>
  <path fill="#E58A2C" d="M27.47,31.45c0.01,0.67,0.2,1.27-0.73,1.43c-0.91,0.15-0.86-0.61-0.93-0.87c0,0-0.45-1.92-0.75-3.91
    c0,0-0.33-3.44-0.33-3.85c-0.02-1.52,0.66-1.99,1.35-1.84c0.5,0.11,1.03,0.5,1.01,1.75c0,0,0.15,3.56,0.21,4.24
    C27.38,29.24,27.47,31.45,27.47,31.45z"/>
  <path fill="#FABD2C" d="M31.67,23.71l-6.17-1.29c0,0-0.05,0.01-0.04,0.09c0.13,1.5,1.07,17.08,1.09,17.34
    c0.02,0.27,0.19,0.37,0.19,0.37s1.3,0.89,1.39,0.93s0.27,0,0.27,0s-0.13-0.04-0.14-0.23c-0.02-0.19,0.3-7.46,0.3-7.46
    c0.01-0.37,0.11-0.52,0.36-0.53c0.24,0,0.29,0.15,0.31,0.53c0,0,1.14,8.05,1.15,8.48s0.31,0.56,0.31,0.56s1.47,0.86,1.59,0.92
    s0.3,0.01,0.3,0.01s-0.22-0.01-0.22-0.3C32.36,42.94,31.67,23.71,31.67,23.71L31.67,23.71z"/>
  <path fill="#FABD2C" d="M31.67,23.71l-6.17-1.29c0,0-0.05,0.01-0.04,0.09c0.13,1.5,1.07,17.08,1.09,17.34
    c0.02,0.27,0.19,0.37,0.19,0.37s1.3,0.89,1.39,0.93s0.27,0,0.27,0s-0.13-0.04-0.14-0.23c-0.02-0.19,0.3-7.46,0.3-7.46
    c0.01-0.37,0.11-0.52,0.36-0.53c0.24,0,0.29,0.15,0.31,0.53c0,0,1.14,8.05,1.15,8.48s0.31,0.56,0.31,0.56s1.47,0.86,1.59,0.92
    s0.3,0.01,0.3,0.01s-0.22-0.01-0.22-0.3C32.36,42.94,31.67,23.71,31.67,23.71L31.67,23.71z"/>
  <path fill="#CE592C" d="M25.54,22.42l6.13,1.29l3.16-1.07l-5.88-1.2"/>
  <ellipse opacity="0.5" fill="#CE592C" enable-background="new    " cx="30" cy="22.41" rx="2.25" ry="0.43"/>
  <ellipse fill="#FABD2C" cx="29.95" cy="17.23" rx="4.96" ry="5"/>
  <path opacity="0.25" fill="#CE592C" enable-background="new    " d="M29.98,21.74c1.19,0,2.3-0.27,3.24-0.75
    c-0.87,0.77-2.01,1.24-3.26,1.24c-1.28,0-2.44-0.49-3.32-1.28C27.6,21.45,28.75,21.74,29.98,21.74z"/>
</svg>
