<svg xmlns="http://www.w3.org/2000/svg" width="60px" height="60px" viewBox="0 0 60 60">
  <path opacity="0.3" fill="#111111" enable-background="new    " d="M30.33,27.19c-11.24,0-20.35,6.46-20.35,14.42
    s9.11,14.42,20.35,14.42s20.35-6.46,20.35-14.42C50.68,33.64,41.57,27.19,30.33,27.19z M30.21,55.03
    c-10.75,0-19.47-6.06-19.47-13.53s8.72-13.53,19.47-13.53s19.47,6.06,19.47,13.53S40.96,55.03,30.21,55.03z"/>
  <ellipse opacity="0.1" fill="#111111" enable-background="new    " cx="30.21" cy="41.5" rx="19.47" ry="13.53"/>
  <path fill="#333333" d="M27.43,44.47c-0.26,0-0.52-0.09-0.7-0.28c-0.12-0.12-0.75-0.76-0.99-1.1c-0.37-0.51-0.41-1.07-0.41-1.3
    l-0.38-6.47c-0.2-0.3-0.3-0.68-0.41-1.09l-0.05-0.17c-0.04-0.18-0.5-2.67-0.64-4.9c-0.04-0.8-0.18-3.42-0.14-3.9
    c0.06-0.75,0.24-1.37,0.54-1.84l-0.03-0.52c-0.03-0.1-0.04-0.2-0.03-0.31c0.03-0.45,0.33-0.84,0.78-0.93l0.81-0.17
    c-1.15-1.13-1.8-2.66-1.8-4.26c0-1.61,0.62-3.12,1.75-4.25c1.12-1.13,2.62-1.75,4.2-1.75h0.01c1.59,0,3.09,0.62,4.21,1.75
    s1.74,2.64,1.75,4.24c0,1.52-0.59,2.98-1.63,4.09l0.37,0.11c0.06,0.01,0.11,0.02,0.16,0.04c0.47,0.15,0.77,0.59,0.74,1.09
    c0.23,0.44,0.34,0.98,0.33,1.62c0.04,0.93,0.16,3.59,0.21,4.13c0.08,0.86,0.17,3.01,0.17,3.1v0.02c0,0.08,0.01,0.17,0.01,0.25
    c0.03,0.51,0.1,1.83-1.44,2.16c-0.2,3.24-0.36,5.94-0.37,6.07c-0.04,0.61-0.39,1.02-0.7,1.19c-1.32,0.91-1.41,0.95-1.52,0.99
    c-0.01,0.01-0.03,0.01-0.05,0.02c-0.19,0.09-0.39,0.11-0.61,0.06c-0.08-0.01-0.14-0.02-0.17-0.02c-0.16-0.03-0.31-0.1-0.43-0.19
    c-0.11-0.04-0.23-0.09-0.34-0.13c-0.01,0.1-0.02,0.15-0.02,0.18c-0.02,0.72-0.45,1.19-0.84,1.4c-0.21,0.12-1.48,0.86-1.6,0.92
    c-0.18,0.1-0.39,0.14-0.61,0.14h-0.01C27.52,44.47,27.47,44.47,27.43,44.47z M26.6,34.17c0.19,0.17,0.31,0.42,0.33,0.68l0.4,6.87
    v0.12c0,0.01,0.01,0.07,0.03,0.09c0.05,0.07,0.18,0.22,0.33,0.38c0.32-0.18,0.72-0.42,0.95-0.55c0.03-0.33,0.16-1.33,0.66-4.95
    c0.07-0.5,0.49-0.86,0.99-0.86h0.03c0.51,0.01,0.93,0.41,0.97,0.91l0.28,3.18c0.05,0.02,0.1,0.04,0.14,0.05
    c0.22-0.15,0.55-0.38,0.76-0.52c0.05-0.82,0.22-3.69,0.42-6.86c0.02-0.37,0.25-0.7,0.6-0.85c0.25-0.11,0.53-0.11,0.78-0.01V31.8
    c-0.01-0.1-0.01-0.21-0.01-0.31c-0.01-0.17-0.09-2.2-0.16-2.98c-0.07-0.7-0.21-4.15-0.22-4.29c0.01-0.55-0.1-0.72-0.13-0.76
    l-0.02-0.02c-0.02-0.01-0.03-0.02-0.05-0.02c-0.13-0.06-0.24-0.15-0.32-0.25l-1.56-0.45c-0.4-0.11-0.68-0.46-0.72-0.87
    c-0.04-0.41,0.18-0.8,0.55-0.99c0.2-0.1,0.33-0.17,0.44-0.24c0.07-0.04,0.13-0.1,0.2-0.15l0.14-0.1c0.03-0.03,0.05-0.06,0.08-0.08
    c0.9-0.77,1.41-1.87,1.41-3.03c0-1.07-0.41-2.07-1.16-2.83c-0.75-0.75-1.74-1.16-2.79-1.16s-2.04,0.41-2.79,1.16
    c-0.75,0.76-1.17,1.76-1.17,2.84c0,1.15,0.49,2.21,1.36,2.99c0.03,0.02,0.05,0.05,0.08,0.07l0.12,0.09c0,0,0.08,0.06,0.08,0.07
    c0.06,0.05,0.11,0.09,0.17,0.13c0.1,0.07,0.21,0.12,0.32,0.17l0.2,0.1c0.04,0.02,0.09,0.05,0.13,0.07c0.05,0.02,0.1,0.03,0.15,0.05
    l0.14,0.04c0.43,0.14,0.71,0.55,0.69,1.01c-0.03,0.45-0.35,0.83-0.8,0.92l-2.37,0.49l0.01,0.24c0.02,0.28-0.08,0.55-0.28,0.75
    c-0.05,0.06-0.23,0.29-0.28,0.99c-0.02,0.27,0.06,2.06,0.14,3.63c0.13,2.1,0.59,4.55,0.59,4.57l0.03,0.1
    C26.52,33.88,26.57,34.06,26.6,34.17L26.6,34.17z M32.69,39.41c-0.03,0.02-0.05,0.03-0.07,0.05
    C32.67,39.43,32.69,39.41,32.69,39.41z"/>
  <path fill="#FABD2C" d="M25.21,22.64l4.46-0.83c0,0,2.42,0.35,2.43,0.35l0.46,17.98l-0.78,1.03c0,0-1.02-0.38-1.1-0.41
    s-0.07-0.18-0.07-0.18l-0.66-7.54l-1.46,9.74l-1.04,0.7c0,0-0.68-0.69-0.89-0.98c-0.24-0.33-0.22-0.73-0.22-0.73L25.21,22.64z"/>
  <path fill="#CE592C" d="M24.75,25.66c0.04-1.67,0.72-2.46,1.44-2.22c0.81,0.27,1.29,1.03,1.21,2.4c0,0-0.07,3.73-0.03,4.48
    c0.05,0.93,0.27,3.4,0.27,3.4c0.05,0.57,0.33,1.44-0.68,1.63c-0.22,0.04-0.39-0.01-0.53-0.12l-0.28-0.43c0,0-0.97-2.72-1.21-4.91
    C24.95,29.87,24.74,26.11,24.75,25.66z"/>
  <path fill="#FABD2C" d="M27.23,33.53c0.02,0.57,0.27,1.23-0.75,1.41c-0.74,0.13-0.75-0.11-1.02-1.13c0,0-0.47-2.5-0.61-4.71
    c0,0-0.18-3.31-0.14-3.76c0.12-1.66,0.91-2.11,1.64-1.87c0.53,0.17,1.08,0.65,0.94,2.01c0,0-0.18,3.89-0.18,4.64
    C27.12,31.05,27.23,33.53,27.23,33.53L27.23,33.53z"/>
  <path opacity="0.25" fill="#CF572E" enable-background="new    " d="M27.23,33.53c0.04,1.16-0.58,1-0.82,0.81
    c-0.63-0.5-0.71-5.21-0.82-6.64c-0.07-0.97,0.09-3.4,0.4-4.17c0.55-0.21,1.04,0.42,1.09,0.51c0.19,0.31,0.29,0.77,0.22,1.45
    c0,0-0.18,3.89-0.18,4.64C27.12,31.05,27.23,33.53,27.23,33.53z"/>
  <path fill="#FABD2C" d="M35.25,31.45c0.01,0.67,0.2,1.27-0.73,1.43c-0.91,0.15-0.86-0.61-0.93-0.87c0,0-0.45-1.92-0.75-3.91
    c0,0-0.33-3.44-0.33-3.85c-0.02-1.52,0.66-1.99,1.35-1.84c0.5,0.11,1.03,0.5,1.01,1.75c0,0,0.15,3.56,0.21,4.24
    C35.16,29.24,35.25,31.45,35.25,31.45L35.25,31.45z"/>
  <path fill="#CE592C" d="M35.25,31.45c0.01,0.67,0.2,1.27-0.73,1.43c-0.91,0.15-0.86-0.61-0.93-0.87c0,0-0.45-1.92-0.75-3.91
    c0,0-0.33-3.44-0.33-3.85c-0.02-1.52,0.66-1.99,1.35-1.84c0.5,0.11,1.03,0.5,1.01,1.75c0,0,0.15,3.56,0.21,4.24
    C35.16,29.24,35.25,31.45,35.25,31.45L35.25,31.45z"/>
  <path fill="#FABD2C" d="M28.33,23.71l6.17-1.29c0,0,0.05,0.01,0.04,0.09c-0.13,1.5-1.07,17.08-1.09,17.34
    c-0.02,0.27-0.19,0.37-0.19,0.37s-1.3,0.89-1.39,0.93c-0.09,0.04-0.27,0-0.27,0s0.13-0.04,0.14-0.23c0.02-0.19-0.3-7.46-0.3-7.46
    c-0.01-0.37-0.11-0.52-0.36-0.52s-0.29,0.15-0.31,0.53c0,0-1.14,8.05-1.15,8.48c-0.01,0.43-0.31,0.56-0.31,0.56
    s-1.47,0.86-1.59,0.92c-0.12,0.06-0.3,0.01-0.3,0.01s0.22-0.01,0.22-0.3C27.64,42.94,28.33,23.71,28.33,23.71L28.33,23.71z"/>
  <path opacity="0.3" fill="#CE592C" enable-background="new    " d="M28.33,23.71l6.17-1.29c0,0,0.05,0.01,0.04,0.09
    c-0.13,1.5-1.07,17.08-1.09,17.34c-0.02,0.27-0.19,0.37-0.19,0.37s-1.3,0.89-1.39,0.93c-0.09,0.04-0.27,0-0.27,0
    s0.13-0.04,0.14-0.23c0.02-0.19-0.3-7.46-0.3-7.46c-0.01-0.37-0.11-0.52-0.36-0.52s-0.29,0.15-0.31,0.53c0,0-1.14,8.05-1.15,8.48
    c-0.01,0.43-0.31,0.56-0.31,0.56s-1.47,0.86-1.59,0.92c-0.12,0.06-0.3,0.01-0.3,0.01s0.22-0.01,0.22-0.3
    C27.64,42.94,28.33,23.71,28.33,23.71L28.33,23.71z"/>
  <path opacity="0.5" fill="#CE592C" enable-background="new    " d="M33.15,22.67l-2.02,4.98l-1.23-4.26"/>
  <path opacity="0.8" fill="#CE592C" enable-background="new    " d="M33.15,22.67l-2.02,4.98l-1.23-4.26"/>
  <path fill="#CE592C" d="M34.46,22.42l-6.14,1.29l-3.15-1.07l5.88-1.2"/>
  <ellipse opacity="0.5" fill="#CE592C" enable-background="new    " cx="30" cy="22.4" rx="2.25" ry="0.43"/>
  <ellipse fill="#FABD2C" cx="29.94" cy="17.23" rx="4.96" ry="5"/>
  <path opacity="0.25" fill="#CE592C" enable-background="new    " d="M29.96,21.74c1.19,0,2.3-0.27,3.24-0.75
    c-0.87,0.77-2.01,1.24-3.26,1.24c-1.28,0-2.44-0.49-3.32-1.28C27.58,21.45,28.73,21.74,29.96,21.74z"/>
  <path fill="#FFFFFF" d="M44.83,48.74c-0.04,0-0.08,0-0.11-0.01l-14.45-3.4c-0.22-0.05-0.38-0.25-0.39-0.48
    c0-0.23,0.15-0.43,0.37-0.49c0.86-0.24,3.23-0.97,3.87-1.51c0.62-0.53,1.11-1.63,1.25-2.01c0.05-0.15,0.18-0.27,0.33-0.31
    c0.16-0.04,0.32-0.01,0.45,0.09l8.99,7.24c0.18,0.15,0.24,0.4,0.14,0.61C45.19,48.63,45.01,48.74,44.83,48.74L44.83,48.74z
     M32.27,44.77l10.53,2.48l-6.76-5.44c-0.26,0.54-0.7,1.31-1.28,1.8C34.27,44.01,33.21,44.44,32.27,44.77z"/>
  <path fill="#3F3F3F" d="M30.37,44.83c0,0,3.19-0.88,4.06-1.61c0.87-0.73,1.4-2.22,1.4-2.22l8.99,7.24L30.37,44.83z"/>
</svg>
