<svg version="1.1" xmlns="http://www.w3.org/2000/svg" width="60px" height="60px" viewBox="0 0 60 60">
  <path opacity="0.3" fill="#111111" enable-background="new    " d="M30.33,27.19c-11.24,0-20.35,6.46-20.35,14.42
    s9.11,14.42,20.35,14.42s20.35-6.46,20.35-14.42C50.68,33.64,41.57,27.19,30.33,27.19L30.33,27.19z M30.21,55.03
    c-10.75,0-19.47-6.06-19.47-13.53s8.72-13.53,19.47-13.53s19.47,6.06,19.47,13.53S40.96,55.03,30.21,55.03z"/>
  <ellipse opacity="0.1" fill="#111111" enable-background="new    " cx="30.21" cy="41.5" rx="19.47" ry="13.53"/>
  <g>
    <path fill="#FFFFFF" d="M30.79,54.8c-0.18,0-0.35-0.1-0.43-0.25l-5.83-10.24c-0.1-0.17-0.08-0.38,0.03-0.54
      c0.12-0.16,0.31-0.23,0.51-0.19c1.16,0.25,4.37,0.89,5.26,0.89c0.98,0,3.52-0.73,4.42-1.01c0.18-0.05,0.38,0,0.52,0.14
      s0.17,0.34,0.1,0.52l-4.11,10.37c-0.07,0.18-0.24,0.3-0.43,0.31L30.79,54.8L30.79,54.8z M25.95,44.77l4.76,8.37l3.34-8.44
      c-1.1,0.31-2.84,0.76-3.73,0.76C29.51,45.46,27.29,45.04,25.95,44.77z"/>
    <path fill="#3F3F3F" d="M24.96,44.06c0,0,4.29,0.9,5.43,0.9c1.16,0,4.5-1.03,4.5-1.03L30.78,54.3L24.96,44.06z"/>
    <path fill="#333333" d="M34.25,23.78h-8.51c-0.42,0-0.8-0.26-0.94-0.66c-0.14-0.4-0.02-0.84,0.3-1.11l0.64-0.53
      c-1.12-1.12-1.77-2.65-1.77-4.25c0-3.3,2.69-5.99,5.98-5.99c1.6,0,3.1,0.63,4.23,1.76s1.75,2.64,1.75,4.24
      c0,1.45-0.53,2.83-1.49,3.93c-0.03,0.05-0.07,0.1-0.11,0.14l-0.13,0.13l-0.03,0.03l0.68,0.52c0.34,0.26,0.48,0.71,0.34,1.12
      C35.06,23.51,34.68,23.78,34.25,23.78L34.25,23.78z M29.49,21.78h0.93c0.08-0.33,0.33-0.6,0.68-0.71c0.08-0.03,0.17-0.06,0.25-0.1
      l0.12-0.05c0.25-0.11,0.45-0.21,0.63-0.34l0.11-0.07c0.14-0.1,0.28-0.22,0.42-0.35c0.01-0.01,0.08-0.07,0.09-0.08l0.05-0.05
      c0.02-0.02,0.04-0.04,0.05-0.06c0.71-0.75,1.1-1.72,1.1-2.74c0-1.07-0.41-2.07-1.16-2.83c-0.75-0.75-1.75-1.17-2.81-1.17
      c-2.19,0-3.98,1.79-3.98,3.99c0,1.3,0.64,2.52,1.71,3.27c0.05,0.03,0.09,0.07,0.13,0.11c0.3,0.19,0.64,0.35,1,0.46
      C29.16,21.18,29.41,21.45,29.49,21.78z"/>
    <path fill="#333333" d="M33.98,43.59h-3.04c-0.45,0-0.84-0.3-0.96-0.72c-0.12,0.42-0.51,0.72-0.96,0.72h-3
      c-0.55,0-0.99-0.44-1-0.99l-0.13-9.18l-0.38,0.97c-0.3,0.71-1.04,1.08-1.78,0.89l-1.02-0.33c-0.74-0.27-1.13-1.03-0.94-1.78
      c0.01-0.04,0.02-0.07,0.03-0.1c0.02-0.08,2.56-9.46,2.56-9.46c0.23-0.93,1.04-1.66,1.96-1.79c0.08-0.02,0.17-0.03,0.26-0.03h8.84
      c0.07,0,0.14,0.01,0.21,0.02c0.96,0.1,1.8,0.83,2.04,1.79c2.08,8.08,2.4,9.32,2.46,9.53c0.2,0.78-0.14,1.5-0.83,1.75l-1.08,0.35
      c-0.8,0.21-1.55-0.16-1.84-0.85l-0.28-0.73l-0.13,8.96C34.97,43.15,34.52,43.59,33.98,43.59z M31.87,41.59h1.12l0.19-13.22
      c0.01-0.48,0.35-0.88,0.82-0.97c0.46-0.09,0.93,0.17,1.11,0.62l0.09,0.23l1.86,4.92h0.01c-0.48-1.88-2.34-9.09-2.34-9.09
      c-0.04-0.16-0.21-0.29-0.33-0.29c-0.03,0-0.06,0-0.08-0.01H25.7c-0.03,0-0.07,0.01-0.1,0.01c-0.09,0-0.26,0.13-0.31,0.32
      c-1.61,5.92-2.22,8.19-2.46,9.08l2.06-5.18c0.18-0.44,0.64-0.71,1.11-0.61c0.47,0.09,0.81,0.49,0.82,0.97L27,41.59h1.08l0.48-6.92
      c0.07-0.79,0.65-1.34,1.43-1.34c0.65,0,1.33,0.42,1.4,1.34L31.87,41.59L31.87,41.59z M22.7,33.66c0-0.01,0.01-0.02,0.01-0.03
      C22.71,33.64,22.7,33.65,22.7,33.66z M37.18,33.61l0.04-0.01L37.18,33.61z M37.23,33.6l0.93-0.23L37.23,33.6z"/>
    <path fill="#CE592C" d="M25.74,22.78l0.9-0.75h6.62l0.99,0.75"/>
    <ellipse opacity="0.5" fill="#CE592C" enable-background="new    " cx="29.95" cy="22.37" rx="2.25" ry="0.3"/>
    <path fill="#FDBF2D" d="M38.15,33.36c0-0.01-2.46-9.53-2.46-9.53c-0.15-0.6-0.72-1.05-1.31-1.05H25.6c-0.59,0-1.13,0.49-1.28,1.08
      c0,0-2.59,9.54-2.59,9.55c-0.06,0.24,0.04,0.49,0.29,0.58l0.94,0.31c0.25,0.06,0.51-0.05,0.61-0.29l2.24-5.65l0.2,14.21h3
      l0.55-7.85c0.02-0.21,0.13-0.41,0.44-0.41s0.38,0.2,0.39,0.41l0.54,7.85h3.04l0.2-14.21l2.12,5.61c0.1,0.23,0.36,0.35,0.61,0.29
      l1.04-0.34C38.18,33.85,38.21,33.6,38.15,33.36z"/>
    <path opacity="0.6" fill="#CF572E" enable-background="new    " d="M26.68,22.78L30,28.46l3.32-5.68"/>
    <path opacity="0.25" fill="#CF572E" enable-background="new    " d="M34.17,28.38l0.08-5.6h0.17l0.48,5.44l0.45,3.13 M25.81,28.38
      l-0.08-5.59h-0.17c0,0-0.31,4.2-0.48,5.43c-0.17,1.24-0.45,3.13-0.45,3.13L25.81,28.38z"/>
    <ellipse fill="#FDBF2D" cx="29.95" cy="17.23" rx="4.98" ry="5"/>
    <path opacity="0.25" fill="#CE592C" enable-background="new    " d="M30.35,21.74c-1.18,0.11-2.31-0.06-3.3-0.44
      c0.94,0.68,2.12,1.04,3.36,0.92c1.27-0.12,2.38-0.71,3.19-1.59C32.69,21.23,31.57,21.63,30.35,21.74z"/>
  </g>
</svg>
