<svg xmlns="http://www.w3.org/2000/svg" width="60px" height="60px" viewBox="0 0 60 60">
  <path opacity="0.3" fill="#111111" enable-background="new    " d="M30.33,27.19c-11.24,0-20.35,6.46-20.35,14.42
    s9.11,14.42,20.35,14.42s20.35-6.46,20.35-14.42S41.57,27.19,30.33,27.19z M30.21,55.03c-10.75,0-19.47-6.06-19.47-13.53
    s8.72-13.53,19.47-13.53s19.47,6.06,19.47,13.53S40.96,55.03,30.21,55.03z"/>
  <ellipse opacity="0.1" fill="#111111" enable-background="new    " cx="30.21" cy="41.5" rx="19.47" ry="13.53"/>
  <g>
    <path fill="#FFFFFF" d="M40.14,52.96c-0.09,0-0.18-0.02-0.26-0.07l-12.27-7.33c-0.19-0.12-0.29-0.35-0.22-0.56
      c0.06-0.22,0.26-0.37,0.48-0.37c1.16,0.01,4.24-0.05,5.06-0.32c0.68-0.22,1.75-1.35,2.26-2.02c0.11-0.14,0.28-0.21,0.45-0.19
      c0.17,0.02,0.32,0.13,0.4,0.29l4.55,9.86c0.09,0.2,0.04,0.43-0.12,0.58C40.38,52.92,40.26,52.96,40.14,52.96z M29.64,45.6L39,51.2
      l-3.54-7.68c-0.55,0.61-1.42,1.47-2.22,1.73C32.57,45.48,30.94,45.57,29.64,45.6L29.64,45.6z"/>
    <path fill="#3F3F3F" d="M27.87,45.13c0,0,4.14,0.01,5.22-0.35c1.08-0.35,2.5-2.18,2.5-2.18l4.55,9.86L27.87,45.13z"/>
    <path fill="#333333" d="M26.53,43.7c-0.18,0-0.37-0.03-0.58-0.08l-0.5-0.14l-0.11-0.3c-0.65-0.61-1.01-1.18-1.06-1.69
      c-0.02-0.2-0.04-0.42-0.01-0.65l-0.17-5.13c-0.05,0.01-0.09,0.02-0.13,0.02c-0.53,0.08-1.22-0.13-1.58-0.26
      c-0.62-0.16-1.02-0.85-0.9-1.64c0.08-0.68,0.45-3.36,0.75-5.23c0.4-2.47,0.88-4.5,0.9-4.58c0.06-0.39,0.25-0.83,0.53-1.2
      l-0.01-0.46c-0.01-0.33,0.11-0.65,0.34-0.9s0.54-0.38,0.88-0.39l0.47-0.01c-0.86-1.05-1.37-2.39-1.37-3.82
      c0-1.6,0.62-3.11,1.74-4.24c1.12-1.13,2.62-1.76,4.22-1.76h0.01c1.59,0,3.09,0.62,4.21,1.75s1.74,2.64,1.75,4.24
      c0,1.62-0.63,3.12-1.71,4.22c0.37,0.21,0.8,0.46,1.15,0.68c1.08,0.67,1.28,1.95,1.31,2.31c0.21,1.1,0.74,3.9,0.88,4.48
      c0.23,0.93,0.66,3.25,0.68,3.35c0.02,0.12,0.04,0.21,0.06,0.3c0.11,0.54,0.4,1.96-1.3,2.51c-0.54,0.17-1.03,0.15-1.45-0.06
      c-0.35-0.18-0.57-0.46-0.71-0.72c-0.22,3.57-0.41,6.62-0.42,6.74c-0.04,0.61-0.39,1.01-0.7,1.19l-0.29,0.11
      c0,0-1.71,0.35-2.08,0.44l-0.04,0.03l-0.25,0.04c-0.14,0.02-0.42,0.03-0.7-0.09c-0.1-0.04-0.17-0.07-0.51-0.36
      c-0.18,0.41-0.49,0.68-0.77,0.8l-0.22,0.07c-0.72,0.13-1.59,0.31-1.82,0.37C26.88,43.67,26.71,43.7,26.53,43.7L26.53,43.7z
       M26.21,41.78c0,0-0.01,0-0.01,0.01C26.2,41.79,26.21,41.79,26.21,41.78z M26.28,41.24c0.06,0.1,0.19,0.25,0.35,0.41
      c0.25-0.06,0.66-0.14,1.36-0.28c0.07-0.72,0.3-2.64,0.67-5.71l1.99,0.1l0.11,4.79c0.09,0.08,0.18,0.16,0.27,0.23
      c0.25-0.06,0.67-0.15,1.4-0.3c0.09-1.51,0.42-6.79,0.69-11.21l1.95-0.23c0.39,1.26,0.83,2.48,1.1,3.21
      c-0.13-0.69-0.42-2.2-0.58-2.86c-0.19-0.75-0.89-4.48-0.92-4.63l-0.02-0.13c-0.01-0.19-0.12-0.64-0.37-0.8
      c-0.55-0.34-1.3-0.77-1.68-0.98l-0.81,0.02l-0.4-1.93c1.52-0.61,2.5-2.07,2.5-3.71c0-1.07-0.41-2.07-1.16-2.83
      c-0.75-0.75-1.74-1.16-2.79-1.16c-1.06,0-2.05,0.42-2.8,1.17c-0.75,0.76-1.16,1.76-1.16,2.83c0,1.72,1.09,3.24,2.71,3.79
      l-0.29,1.95l-2.71,0.08l0.02,0.57l-0.35,0.31c-0.12,0.11-0.23,0.31-0.25,0.47c-0.02,0.1-0.5,2.12-0.89,4.51
      c-0.31,1.92-0.59,3.97-0.7,4.8c0.02,0,0.03,0.01,0.04,0.01L24,31.81L25.97,32L26.28,41.24L26.28,41.24z M22.99,33.56
      c0.03,0.01,0.05,0.02,0.08,0.03C23.04,33.58,23.02,33.57,22.99,33.56z"/>
    <path fill="#FABD2C" d="M37.24,32.44c0.12,0.73,0.42,1.35-0.57,1.67c-0.97,0.31-1.03-0.53-1.15-0.79c0,0-0.79-2.02-1.44-4.14
      c0,0-0.9-3.69-0.98-4.14c-0.26-1.66,0.41-2.27,1.17-2.21c0.56,0.04,1.2,0.38,1.38,1.75c0,0,0.72,3.85,0.91,4.58
      C36.79,30.06,37.24,32.44,37.24,32.44L37.24,32.44z"/>
    <path opacity="0.25" fill="#CF572E" enable-background="new    " d="M34.23,29.87l0.2-7.11l0.41,0.31c0,0-0.06,5.4,0.11,6.64
      c0.17,1.24,0.45,3.13,0.45,3.13L34.23,29.87L34.23,29.87z"/>
    <path fill="#E58A2C" d="M24.66,22.08l0.61,18.85c0,0-0.04,0.03,0.01,0.47c0.05,0.48,0.95,1.24,0.95,1.24l1.86-0.57l1.26-10.05
      l0.23,0.77l0.19,8.22l0.95,0.81l0.18,0.02l1.44-1.03l0.51-18.03l-2.05-0.32L24.66,22.08"/>
    <path fill="#FABD2C" d="M34.51,22.74L26.24,23c-0.49,15.18,0.06,15.86-0.04,19.32c-0.01,0.29,0.02,0.32,0.02,0.32
      s0.18,0.05,0.33,0.05c0.05,0,0.09-0.01,0.12-0.02c0.13-0.07,2-0.41,2-0.41s0.3-0.14,0.31-0.57c0.02-0.43,0.88-7.48,0.88-7.48
      c0.05-0.65,0.14-0.75,0.39-0.76c0.25,0.01,0.35,0.16,0.36,0.53c0,0,0.3,7.4,0.28,7.59c-0.02,0.2-0.14,0.23-0.14,0.23H31
      c0.09-0.04,2.21-0.48,2.21-0.48s0.18-0.1,0.2-0.37L34.51,22.74"/>
    <path opacity="0.1" fill="#CE592C" enable-background="new    " d="M34.51,22.74L26.24,23c-0.49,15.18,0.06,15.86-0.04,19.32
      c-0.01,0.29,0.02,0.32,0.02,0.32s0.18,0.05,0.33,0.05c0.05,0,0.09-0.01,0.12-0.02c0.13-0.07,2-0.41,2-0.41s0.3-0.14,0.31-0.57
      c0.02-0.43,0.88-7.48,0.88-7.48c0.05-0.65,0.14-0.75,0.39-0.76c0.25,0.01,0.35,0.16,0.36,0.53c0,0,0.3,7.4,0.28,7.59
      c-0.02,0.2-0.14,0.23-0.14,0.23H31c0.09-0.04,2.21-0.48,2.21-0.48s0.18-0.1,0.2-0.37L34.51,22.74"/>
    <path fill="#CE592C" d="M32.87,21.84l-8.21,0.24l1.56,0.95l8.25-0.29L32.87,21.84"/>
    <ellipse opacity="0.5" fill="#CE592C" enable-background="new    " cx="29.98" cy="22.37" rx="2.25" ry="0.3"/>
    <ellipse fill="#FABD2C" cx="29.94" cy="17.23" rx="4.96" ry="5"/>
    <path opacity="0.8" fill="#CE592C" enable-background="new    " d="M33.29,22.77l-3.09,5.36l-2.77-5.3"/>
    <path opacity="0.25" fill="#CE592C" enable-background="new    " d="M29.97,21.74c1.19,0,2.3-0.27,3.24-0.75
      c-0.87,0.77-2.01,1.24-3.26,1.24c-1.28,0-2.44-0.49-3.32-1.28C27.59,21.45,28.74,21.74,29.97,21.74z"/>
    <path fill="#FABD2C" d="M25.91,26.06c-0.1,1.59-0.92,5.97-0.92,5.97l-0.54,2.33c-0.08,0.24-0.27,0.33-0.62,0.38
      c-0.35,0.05-1.09-0.21-1.09-0.21c-0.23-0.06-0.29-0.3-0.25-0.55c0,0,0.35-2.72,0.75-5.23c0.4-2.46,0.89-4.51,0.89-4.51
      c0.1-0.61,0.59-1.29,1.17-1.34c0,0,0.69,0,0.71,1.06C26.03,25.08,25.91,26.06,25.91,26.06z"/>
    <path opacity="0.25" fill="#CF572E" enable-background="new    " d="M25.49,22.95c0.2,0.08,0.5,0.32,0.52,1.01
      c0.03,1.12-0.1,2.1-0.1,2.1c-0.09,1.36-0.7,4.73-0.87,5.7l-0.01,0.05C25.02,31.81,25.6,26.32,25.49,22.95L25.49,22.95z"/>
  </g>
</svg>
