<svg xmlns="http://www.w3.org/2000/svg" width="60px" height="60px" viewBox="0 0 60 60">
  <g>
    <path opacity="0.3" fill="#111111" enable-background="new    " d="M30.33,27.19c-11.24,0-20.35,6.46-20.35,14.42
      s9.11,14.42,20.35,14.42s20.35-6.46,20.35-14.42S41.57,27.19,30.33,27.19z M30.21,55.03c-10.75,0-19.47-6.06-19.47-13.53
      s8.72-13.53,19.47-13.53s19.47,6.06,19.47,13.53S40.96,55.03,30.21,55.03z"/>
    <ellipse opacity="0.1" fill="#111111" enable-background="new    " cx="30.21" cy="41.5" rx="19.47" ry="13.53"/>
  </g>
  <g>
    <path fill="#FFFFFF" d="M20.29,52.96c-0.12,0-0.24-0.04-0.33-0.13c-0.16-0.15-0.21-0.38-0.12-0.58l4.55-9.86
      c0.07-0.16,0.22-0.27,0.4-0.29c0.17-0.02,0.35,0.05,0.45,0.19c0.37,0.48,1.49,1.76,2.26,2.02c0.82,0.27,3.92,0.32,5.06,0.32
      c0.22,0,0.42,0.15,0.48,0.37s-0.03,0.45-0.22,0.56l-12.27,7.33C20.47,52.94,20.38,52.96,20.29,52.96L20.29,52.96z M24.97,43.52
      l-3.54,7.68l9.36-5.6c-1.3-0.04-2.93-0.12-3.6-0.35C26.39,45,25.51,44.13,24.97,43.52L24.97,43.52z"/>
    <path fill="#3F3F3F" d="M32.56,45.13c0,0-4.14,0.01-5.22-0.35c-1.08-0.35-2.5-2.18-2.5-2.18l-4.55,9.86L32.56,45.13z"/>
    <path fill="#333333" d="M33.37,43.7c-0.18,0-0.35-0.03-0.49-0.09c-0.22-0.06-1.1-0.23-1.82-0.37l-0.22-0.07
      c-0.28-0.12-0.59-0.39-0.77-0.8c-0.34,0.29-0.41,0.31-0.51,0.36c-0.28,0.12-0.54,0.11-0.69,0.09l-0.33-0.07
      c-0.43-0.1-2.05-0.43-2.05-0.43l-0.3-0.11c-0.31-0.18-0.65-0.58-0.7-1.17c-0.01-0.12-0.19-3.18-0.42-6.75
      c-0.14,0.27-0.36,0.54-0.7,0.72c-0.42,0.22-0.91,0.24-1.45,0.06c-1.69-0.54-1.41-1.97-1.3-2.5c0.02-0.09,0.04-0.18,0.05-0.27
      c0.02-0.13,0.46-2.45,0.68-3.37c0.14-0.58,0.68-3.38,0.89-4.48c0.03-0.36,0.23-1.64,1.31-2.31c0.35-0.22,0.78-0.47,1.15-0.68
      c-1.08-1.1-1.72-2.6-1.71-4.22c0-1.6,0.62-3.11,1.75-4.24c1.12-1.13,2.62-1.75,4.21-1.75h0.01c1.59,0,3.09,0.63,4.21,1.76
      s1.74,2.64,1.74,4.24c0,1.43-0.5,2.77-1.37,3.82l0.47,0.01c0.33,0.01,0.65,0.15,0.88,0.39s0.35,0.56,0.34,0.89l-0.02,0.46
      c0.28,0.37,0.48,0.82,0.55,1.27c0.01,0.01,0.49,2.04,0.89,4.51c0.3,1.87,0.67,4.54,0.75,5.23c0.13,0.8-0.27,1.48-0.98,1.67
      c-0.28,0.11-0.98,0.31-1.5,0.23c-0.03,0-0.08-0.01-0.13-0.02l-0.17,5.13c0.03,0.22,0.01,0.45-0.01,0.65
      c-0.05,0.52-0.42,1.09-1.09,1.72l-0.13,0.29l-0.45,0.12C33.74,43.67,33.54,43.7,33.37,43.7L33.37,43.7z M33.68,41.78
      c0,0,0.01,0,0.01,0.01C33.69,41.78,33.68,41.78,33.68,41.78z M31.9,41.37c0.71,0.13,1.11,0.22,1.36,0.28
      c0.17-0.17,0.29-0.32,0.36-0.41l0.3-9.24l1.97-0.19l0.44,1.92c0.01,0,0.03-0.01,0.04-0.01c-0.11-0.83-0.38-2.87-0.7-4.81
      c-0.39-2.4-0.87-4.42-0.87-4.44c-0.04-0.24-0.15-0.44-0.27-0.55l-0.35-0.31l0.02-0.57l-2.71-0.08l-0.29-1.95
      c1.62-0.54,2.71-2.07,2.71-3.79c0-1.07-0.41-2.07-1.16-2.83c-0.75-0.75-1.74-1.17-2.79-1.17c-1.06,0-2.05,0.41-2.8,1.17
      C26.41,15.14,26,16.15,26,17.22c0,1.65,0.98,3.11,2.5,3.72l-0.4,1.93l-0.82-0.02c-0.38,0.21-1.12,0.64-1.68,0.98
      c-0.25,0.15-0.36,0.61-0.37,0.8l-0.02,0.12c-0.03,0.16-0.73,3.88-0.92,4.64c-0.16,0.66-0.45,2.16-0.58,2.86
      c0.27-0.72,0.71-1.95,1.1-3.22l1.95,0.23c0.28,4.42,0.6,9.68,0.69,11.21c0.73,0.15,1.15,0.24,1.4,0.3
      c0.09-0.07,0.18-0.16,0.27-0.23l0.11-4.79l1.99-0.1C31.7,39.55,31.85,40.88,31.9,41.37z M36.82,33.59c-0.02,0-0.04,0.01-0.06,0.02
      C36.78,33.6,36.8,33.59,36.82,33.59z"/>
    <path fill="#FABD2C" d="M22.66,32.44c-0.12,0.73-0.42,1.35,0.57,1.67c0.97,0.31,1.03-0.53,1.15-0.79c0,0,0.79-2.02,1.44-4.14
      c0,0,0.9-3.69,0.98-4.14c0.26-1.66-0.41-2.27-1.17-2.21c-0.56,0.04-1.2,0.38-1.38,1.75c0,0-0.72,3.85-0.91,4.58
      C23.11,30.06,22.66,32.44,22.66,32.44z"/>
    <path opacity="0.25" fill="#CF572E" enable-background="new    " d="M25.67,29.87l-0.2-7.11l-0.41,0.31c0,0,0.06,5.4-0.11,6.64
      s-0.45,3.13-0.45,3.13L25.67,29.87L25.67,29.87z"/>
    <path fill="none" d="M27.03,22.07h8.2v20.56h-8.2C27.03,42.63,27.03,22.07,27.03,22.07z"/>
    <path fill="#E58A2C" d="M35.23,22.07l-6.16,0.37l-2.04,0.32l0.51,18.03l1.43,1.03l0.19-0.02l0.94-0.81l0.19-8.22L30.53,32
      l1.25,10.04l1.87,0.57c0,0,0.9-0.77,0.95-1.24c0.04-0.43,0-0.47,0-0.47L35.23,22.07"/>
    <path fill="none" d="M25.39,22.74h8.31V42.7h-8.31V22.74z"/>
    <path fill="#FABD2C" d="M25.39,22.74l1.1,18.22c0.02,0.28,0.2,0.38,0.2,0.38s2.11,0.43,2.2,0.47h0.28c0,0-0.13-0.04-0.14-0.22
      c-0.02-0.19,0.27-7.6,0.27-7.6c0.02-0.37,0.12-0.52,0.36-0.52s0.35,0.1,0.4,0.75c0,0,0.85,7.06,0.87,7.49s0.31,0.56,0.31,0.56
      s1.86,0.35,1.99,0.41c0.03,0.02,0.08,0.02,0.13,0.02c0.14,0,0.32-0.05,0.32-0.05s0.03-0.03,0.02-0.32
      c-0.1-3.46,0.46-4.13-0.04-19.32L25.39,22.74"/>
    <path fill="none" d="M25.42,21.84h9.81v1.19h-9.81C25.42,23.03,25.42,21.84,25.42,21.84z"/>
    <path fill="#CE592C" d="M27.03,21.84l-1.61,0.9l8.25,0.29l1.56-0.96L27.03,21.84"/>
    <ellipse opacity="0.5" fill="#CE592C" enable-background="new    " cx="29.92" cy="22.37" rx="2.25" ry="0.3"/>
    <ellipse fill="#FABD2C" cx="29.95" cy="17.23" rx="4.96" ry="5"/>
    <path opacity="0.6" fill="#CE592C" enable-background="new    " d="M26.61,22.77l3.09,5.36l2.76-5.3"/>
    <path opacity="0.25" fill="#CE592C" enable-background="new    " d="M29.93,21.74c-1.19,0-2.3-0.27-3.24-0.75
      c0.87,0.77,2.01,1.24,3.26,1.24c1.28,0,2.44-0.49,3.32-1.28C32.31,21.45,31.16,21.74,29.93,21.74L29.93,21.74z"/>
    <path fill="#FABD2C" d="M33.99,26.06c0.1,1.59,0.92,5.97,0.92,5.97l0.54,2.33c0.08,0.24,0.27,0.33,0.62,0.38s1.09-0.21,1.09-0.21
      c0.23-0.06,0.29-0.3,0.25-0.55c0,0-0.35-2.72-0.75-5.23c-0.4-2.46-0.89-4.51-0.89-4.51c-0.1-0.61-0.59-1.29-1.17-1.34
      c0,0-0.69,0-0.71,1.06C33.86,25.08,33.99,26.06,33.99,26.06L33.99,26.06z"/>
    <path opacity="0.25" fill="#CF572E" enable-background="new    " d="M34.41,22.95c-0.2,0.08-0.5,0.32-0.52,1.01
      c-0.03,1.12,0.1,2.1,0.1,2.1c0.09,1.36,0.7,4.73,0.87,5.7l0.01,0.05C34.88,31.81,34.3,26.32,34.41,22.95z"/>
  </g>
</svg>
