<svg xmlns="http://www.w3.org/2000/svg" width="60px" height="60px" viewBox="0 0 60 60">
  <path opacity="0.3" fill="#111111" enable-background="new    " d="M30.33,27.19c-11.24,0-20.35,6.46-20.35,14.42
    s9.11,14.42,20.35,14.42s20.35-6.46,20.35-14.42S41.57,27.19,30.33,27.19z M30.21,55.03c-10.75,0-19.47-6.06-19.47-13.53
    s8.72-13.53,19.47-13.53s19.47,6.06,19.47,13.53S40.96,55.03,30.21,55.03z"/>
  <ellipse opacity="0.1" fill="#111111" enable-background="new    " cx="30.21" cy="41.5" rx="19.47" ry="13.53"/>
  <path fill="#FFFFFF" d="M15.6,48.74c-0.19,0-0.36-0.11-0.45-0.28c-0.1-0.21-0.05-0.46,0.14-0.61l8.99-7.24
    c0.12-0.1,0.29-0.14,0.45-0.09c0.16,0.04,0.28,0.16,0.34,0.31c0,0.01,0.5,1.37,1.25,2.01c0.64,0.54,3.01,1.28,3.87,1.51
    c0.22,0.06,0.37,0.26,0.37,0.49s-0.16,0.42-0.39,0.48l-14.45,3.4C15.68,48.73,15.64,48.74,15.6,48.74z M24.39,41.8l-6.76,5.44
    l10.53-2.48c-0.94-0.33-2-0.75-2.49-1.16C25.09,43.11,24.65,42.34,24.39,41.8L24.39,41.8z"/>
  <path fill="#3F3F3F" d="M30.05,44.83c0,0-3.19-0.88-4.06-1.61c-0.87-0.73-1.4-2.22-1.4-2.22l-8.99,7.24L30.05,44.83L30.05,44.83z"/>
  <path fill="#333333" d="M32.45,44.49c-0.09,0-0.17-0.01-0.26-0.03c-0.17-0.01-0.34-0.06-0.49-0.14c-0.12-0.07-1.39-0.81-1.6-0.93
    c-0.39-0.2-0.81-0.67-0.84-1.41c0-0.02-0.01-0.07-0.02-0.16c-0.12,0.04-0.25,0.09-0.37,0.14c-0.12,0.09-0.25,0.16-0.41,0.19
    c0,0-0.12,0.02-0.26,0.03c-0.1,0.01-0.19,0.01-0.29-0.01c-0.1-0.01-0.2-0.04-0.28-0.07c-0.11-0.05-0.2-0.08-1.59-1.03
    c-0.24-0.13-0.58-0.54-0.63-1.13c-0.01-0.15-0.17-2.85-0.37-6.09c-1.54-0.33-1.47-1.65-1.44-2.15c0-0.08,0.01-0.16,0.01-0.25
    c0-0.12,0.09-2.27,0.17-3.13c0.05-0.54,0.17-3.21,0.21-4.19c-0.01-0.59,0.1-1.13,0.33-1.56c-0.02-0.5,0.27-0.93,0.72-1.08
    c0.06-0.02,0.12-0.04,0.18-0.04l0.37-0.11c-1.04-1.11-1.63-2.57-1.63-4.09c0-1.6,0.62-3.11,1.75-4.24
    c1.12-1.13,2.62-1.75,4.21-1.75h0.01c1.59,0,3.09,0.63,4.21,1.76s1.74,2.64,1.74,4.24c0,1.59-0.65,3.13-1.8,4.26l0.81,0.17
    c0.44,0.09,0.77,0.47,0.8,0.92c0.01,0.14-0.01,0.28-0.06,0.41l-0.03,0.43c0.3,0.47,0.48,1.09,0.54,1.84
    c0.04,0.48-0.1,3.1-0.14,3.89c-0.14,2.25-0.6,4.73-0.62,4.84l-0.06,0.25c-0.11,0.41-0.21,0.79-0.41,1.09l-0.38,6.47
    c0,0.22-0.04,0.79-0.41,1.3c-0.25,0.34-0.87,0.97-0.99,1.1C32.97,44.39,32.71,44.49,32.45,44.49L32.45,44.49z M31.25,41.75
    c0.23,0.13,0.63,0.37,0.95,0.55c0.15-0.16,0.28-0.31,0.33-0.38c0-0.04,0.02-0.16,0.03-0.2l0.4-6.87c0.02-0.26,0.13-0.51,0.33-0.68
    c0.04-0.11,0.08-0.29,0.13-0.45l0.05-0.18c0,0,0.44-2.42,0.58-4.51c0.08-1.56,0.16-3.35,0.14-3.62c-0.04-0.55-0.17-0.87-0.28-0.98
    c-0.19-0.2-0.3-0.47-0.28-0.75l0.01-0.24l-2.37-0.49c-0.44-0.09-0.77-0.47-0.8-0.92c-0.03-0.45,0.26-0.87,0.69-1.01l0.15-0.04
    c0.05-0.01,0.1-0.03,0.14-0.05c0.05-0.02,0.1-0.05,0.15-0.08l0.13-0.07c0.17-0.08,0.28-0.14,0.38-0.2
    c0.07-0.04,0.12-0.08,0.17-0.12l0.22-0.17c0.02-0.03,0.05-0.05,0.07-0.07c0.88-0.78,1.36-1.84,1.37-2.99
    c0-1.07-0.41-2.07-1.16-2.83c-0.75-0.75-1.77-1.18-2.8-1.17c-1.06,0-2.05,0.41-2.79,1.17c-0.75,0.75-1.16,1.76-1.16,2.83
    c0,1.16,0.51,2.26,1.41,3.03c0.03,0.02,0.06,0.05,0.08,0.08l0.08,0.06c0.13,0.1,0.2,0.15,0.27,0.2c0.1,0.06,0.21,0.12,0.32,0.17
    c0.02,0.01,0.12,0.06,0.13,0.07c0.35,0.2,0.56,0.6,0.51,1s-0.31,0.74-0.7,0.85l-1.56,0.45c-0.09,0.1-0.2,0.19-0.32,0.25
    c-0.02,0.01-0.03,0.02-0.05,0.02c0,0.01-0.01,0.01-0.02,0.02c-0.03,0.04-0.14,0.21-0.13,0.71c-0.01,0.2-0.15,3.65-0.22,4.35
    c-0.08,0.81-0.16,2.97-0.16,2.99c0,0.09-0.01,0.2-0.01,0.3v0.04c0.25-0.1,0.53-0.1,0.78,0.01c0.34,0.15,0.57,0.48,0.59,0.85
    c0.19,3.16,0.37,6.02,0.42,6.86c0.22,0.15,0.53,0.36,0.77,0.52c0.04-0.02,0.09-0.03,0.14-0.05l0.28-3.18
    c0.04-0.51,0.46-0.9,0.97-0.91h0.03c0.5,0,0.92,0.37,0.99,0.86C31.09,40.41,31.22,41.42,31.25,41.75L31.25,41.75z M27.13,39.36
    c0.01,0.01,0.04,0.03,0.1,0.07C27.19,39.41,27.16,39.38,27.13,39.36z"/>
  <path fill="#E58A2C" d="M34.68,22.64l-4.46-0.83c0,0-2.42,0.35-2.43,0.35l-0.46,17.98l0.78,1.03c0,0,1.02-0.38,1.1-0.41
    c0.08-0.03,0.07-0.18,0.07-0.18l0.66-7.54l1.46,9.74l1.04,0.7c0,0,0.68-0.69,0.89-0.98c0.24-0.33,0.22-0.73,0.22-0.73L34.68,22.64
    L34.68,22.64z"/>
  <path fill="#FABD2C" d="M32.66,33.53c-0.02,0.57-0.27,1.23,0.75,1.41c0.74,0.13,0.75-0.11,1.02-1.13c0,0,0.47-2.5,0.61-4.71
    c0,0,0.18-3.31,0.14-3.76c-0.12-1.66-0.91-2.11-1.64-1.87c-0.53,0.17-1.08,0.65-0.94,2.01c0,0,0.18,3.89,0.18,4.64
    C32.76,31.05,32.66,33.53,32.66,33.53L32.66,33.53z"/>
  <path opacity="0.25" fill="#CF572E" enable-background="new    " d="M32.66,33.53c-0.02,0.4,0.19-1.86,0.42-4.94
    c0.1-1.35-0.08-4.87-0.27-4.56s-0.29,0.77-0.22,1.45c0,0,0.18,3.89,0.18,4.64C32.76,31.05,32.66,33.53,32.66,33.53z"/>
  <path fill="#FABD2C" d="M24.64,31.45c-0.01,0.67-0.2,1.27,0.73,1.43c0.91,0.15,0.86-0.61,0.93-0.87c0,0,0.45-1.92,0.75-3.91
    c0,0,0.33-3.44,0.33-3.85c0.02-1.52-0.66-1.99-1.35-1.84c-0.5,0.11-1.03,0.5-1.01,1.75c0,0-0.15,3.56-0.21,4.24
    C24.72,29.24,24.64,31.45,24.64,31.45z"/>
  <path opacity="0.25" fill="#CE592C" enable-background="new    " d="M24.64,31.45c-0.01,0.67-0.2,1.27,0.73,1.43
    c0.91,0.15,0.86-0.61,0.93-0.87c0,0,0.45-1.92,0.75-3.91c0,0,0.33-3.44,0.33-3.85c0.02-1.52-0.66-1.99-1.35-1.84
    c-0.5,0.11-1.03,0.5-1.01,1.75c0,0-0.15,3.56-0.21,4.24C24.72,29.24,24.64,31.45,24.64,31.45z"/>
  <path fill="#FABD2C" d="M31.56,23.71l-6.17-1.29c0,0-0.05,0.01-0.04,0.09c0.13,1.5,1.07,17.08,1.09,17.34
    c0.02,0.27,0.19,0.37,0.19,0.37s1.3,0.89,1.39,0.93s0.27,0,0.27,0s-0.13-0.04-0.14-0.23c-0.02-0.19,0.3-7.46,0.3-7.46
    c0.01-0.37,0.11-0.52,0.36-0.53c0.24,0,0.29,0.15,0.31,0.53c0,0,1.14,8.05,1.15,8.48s0.31,0.56,0.31,0.56s1.47,0.86,1.59,0.92
    s0.3,0.01,0.3,0.01s-0.22-0.01-0.22-0.3C32.25,42.94,31.56,23.71,31.56,23.71L31.56,23.71z"/>
  <path opacity="0.6" fill="#CE592C" enable-background="new    " d="M26.74,22.67l2.02,4.98l1.23-4.26"/>
  <path fill="#CE592C" d="M25.43,22.42l6.13,1.29l3.16-1.07l-5.88-1.2"/>
  <ellipse opacity="0.5" fill="#CE592C" enable-background="new    " cx="29.89" cy="22.41" rx="2.25" ry="0.43"/>
  <ellipse fill="#FABD2C" cx="29.95" cy="17.23" rx="4.96" ry="5"/>
  <path opacity="0.25" fill="#CE592C" enable-background="new    " d="M29.93,21.74c-1.19,0-2.3-0.27-3.24-0.75
    c0.87,0.77,2.01,1.24,3.26,1.24c1.28,0,2.44-0.49,3.32-1.28C32.31,21.45,31.16,21.74,29.93,21.74L29.93,21.74z"/>
</svg>
