<svg xmlns="http://www.w3.org/2000/svg" width="60px" height="60px" viewBox="0 0 60 60">
  <g>
    <path opacity="0.3" fill="#111111" enable-background="new    " d="M30.33,27.19c-11.24,0-20.35,6.46-20.35,14.42
      s9.11,14.42,20.35,14.42s20.35-6.46,20.35-14.42S41.57,27.19,30.33,27.19z M30.21,55.03c-10.75,0-19.47-6.06-19.47-13.53
      s8.72-13.53,19.47-13.53s19.47,6.06,19.47,13.53S40.96,55.03,30.21,55.03z"/>
    <ellipse opacity="0.1" fill="#111111" enable-background="new    " cx="30.21" cy="41.5" rx="19.47" ry="13.53"/>
  </g>
  <g>
    <path fill="#333333" d="M29.67,43.83c-0.5,0-0.95-0.04-1.17-0.07c-0.33,0.02-0.56-0.08-0.71-0.18s-0.29-0.18-0.88-1.05
      c-0.1-0.15-0.16-0.33-0.17-0.51c-0.01-0.19-1.01-18.74-1.11-20.21c-0.01-0.14,0.01-0.28,0.06-0.42c-1.07-1.11-1.69-2.6-1.69-4.16
      c0-1.6,0.62-3.11,1.75-4.24c1.12-1.13,2.62-1.75,4.21-1.75h0.01c1.59,0,3.09,0.63,4.21,1.76s1.74,2.64,1.74,4.24
      c0,1.74-0.75,3.35-2.02,4.47l0.19,0.15c0.26,0.21,0.4,0.54,0.36,0.88L32.48,42.4c-0.04,0.75-0.83,1.05-1.22,1.2
      C30.82,43.78,30.21,43.83,29.67,43.83z M30.48,42.22c0,0.05-0.01,0.09-0.01,0.14v-0.12L30.48,42.22z M28.82,41.78
      c0.63,0.06,1.44,0.06,1.71-0.04l1.87-18.66l-0.69-0.56c-0.23-0.14-0.4-0.36-0.46-0.62c-0.1-0.45,0.08-0.91,0.49-1.12
      c1.35-0.69,2.18-2.05,2.18-3.54c0-1.07-0.41-2.07-1.16-2.83c-0.75-0.75-1.77-1.14-2.8-1.17c-1.06,0-2.05,0.41-2.79,1.17
      c-0.75,0.75-1.16,1.76-1.16,2.83c0,1.42,0.73,2.7,1.97,3.44c0.35,0.21,0.54,0.61,0.48,1.02c-0.07,0.41-0.37,0.73-0.77,0.82
      c0.21,3.64,0.93,16.94,1.05,19.13C28.75,41.68,28.78,41.73,28.82,41.78L28.82,41.78z"/>
    <path fill="#FFFFFF" d="M26.99,43.9h-0.06l-15.16-1.99c-0.25-0.03-0.44-0.25-0.44-0.5s0.19-0.46,0.44-0.5L26.58,39
      c0.23-0.03,0.45,0.1,0.53,0.32s0.01,0.46-0.18,0.59c-0.01,0.01-1.05,0.76-0.77,1.39c0.43,0.94,1.18,1.75,1.19,1.75
      c0.14,0.15,0.18,0.38,0.08,0.57C27.35,43.79,27.18,43.9,26.99,43.9L26.99,43.9z M15.71,41.41l10.13,1.33
      c-0.2-0.3-0.42-0.65-0.59-1.02c-0.25-0.55-0.14-1.09,0.11-1.55L15.71,41.41z"/>
    <path fill="#3F3F3F" d="M26.99,43.4c0,0-0.81-0.86-1.28-1.89c-0.47-1.03,0.94-2.01,0.94-2.01l-14.81,1.91L26.99,43.4L26.99,43.4z"
      />
    <path fill="#E58A2C" d="M33.45,22.64l-5.6-1.2c0,0-1.12,0.24-1.14,0.24l1.43,20.54l0.35,0.53c0,0,1.68,0.21,2.41-0.08
      c0.58-0.23,0.58-0.34,0.58-0.34L33.45,22.64L33.45,22.64z"/>
    <path fill="#FABD2C" d="M27.38,22.7l-0.73-1.06c0,0-0.04,0.01-0.03,0.09c0.1,1.5,1.11,20.23,1.11,20.23s0.47,0.7,0.58,0.76
      c0.1,0.06,0.25,0.01,0.25,0.01s-0.18-0.01-0.18-0.3C28.37,42.24,27.38,22.7,27.38,22.7L27.38,22.7z"/>
    <path fill="#CE592C" d="M26.65,21.65l0.73,1.05l6.07-0.06l-1.2-0.97"/>
    <ellipse opacity="0.5" fill="#CE592C" enable-background="new    " cx="29.9" cy="22.01" rx="2.13" ry="0.52"/>
    <path fill="#FABD2C" d="M29.26,33.53c-0.02,0.57-0.31,1.45,0.87,1.59c1.17,0.14,1.21-0.86,1.27-1.14c0,0,0.42-2.16,0.58-4.36
      c0,0,0.21-3.83,0.17-4.28c-0.14-1.66-1.05-2.11-1.88-1.87c-0.61,0.17-1.24,0.65-1.08,2.01c0,0,0.03,3.94,0.02,4.69
      C29.19,31.1,29.26,33.53,29.26,33.53z"/>
    <path opacity="0.3" fill="#CE592C" enable-background="new    " d="M29.66,33.84c0,0-0.09-2.76-0.09-3.72
      c0.01-0.79-0.16-4.78-0.16-4.78c-0.09-0.79,0.06-1.31,0.33-1.63c-0.39,0.28-0.68,0.82-0.56,1.79c0,0,0.03,3.94,0.02,4.69
      c-0.01,0.93,0.05,3.36,0.05,3.36c-0.02,0.45-0.2,1.1,0.32,1.42C29.6,34.69,29.65,34.22,29.66,33.84L29.66,33.84z"/>
    <ellipse fill="#FABD2C" cx="29.95" cy="17.23" rx="4.96" ry="5"/>
    <path opacity="0.25" fill="#CE592C" enable-background="new    " d="M29.93,21.74c-1.19,0-2.3-0.27-3.24-0.75
      c0.87,0.77,2.01,1.24,3.26,1.24c1.28,0,2.44-0.49,3.32-1.28C32.31,21.45,31.16,21.74,29.93,21.74L29.93,21.74z"/>
  </g>
</svg>
