<svg xmlns="http://www.w3.org/2000/svg" width="60px" height="60px" viewBox="0 0 60 60">
  <g>
    <path opacity="0.3" fill="#111111" enable-background="new    " d="M30.33,27.2c-11.24,0-20.35,6.46-20.35,14.42
      s9.11,14.42,20.35,14.42s20.35-6.46,20.35-14.42C50.68,33.65,41.57,27.2,30.33,27.2z M30.21,55.04
      c-10.75,0-19.47-6.06-19.47-13.53s8.72-13.53,19.47-13.53s19.47,6.06,19.47,13.53S40.96,55.04,30.21,55.04z"/>
    <ellipse opacity="0.1" fill="#111111" enable-background="new    " cx="30.21" cy="41.51" rx="19.47" ry="13.53"/>
  </g>
  <g>
    <path fill="#FFFFFF" d="M25.76,42.6c-0.07,0-0.14-0.01-0.2-0.04l-12.42-5.44c-0.23-0.1-0.35-0.35-0.28-0.59
      c0.06-0.24,0.29-0.4,0.54-0.37l15.03,1.64c0.24,0.03,0.42,0.21,0.44,0.45s-0.12,0.45-0.35,0.53c-1.03,0.33-2.18,0.96-2.26,1.39
      c-0.18,1-0.02,1.82-0.01,1.83c0.04,0.18-0.03,0.37-0.17,0.49C25.99,42.57,25.87,42.6,25.76,42.6L25.76,42.6z M16.53,37.52
      l8.65,3.79c-0.01-0.37,0.01-0.82,0.1-1.32c0.1-0.56,0.63-1.03,1.21-1.39L16.53,37.52L16.53,37.52z"/>
    <path fill="#3F3F3F" d="M25.76,42.1c0,0-0.22-0.92,0.01-2.03c0.22-1.04,2.6-1.78,2.6-1.78l-15.03-1.64L25.76,42.1L25.76,42.1z"/>
    <path fill="#333333" d="M28.81,44.46c-0.16,0-0.31-0.03-0.46-0.09c-0.2-0.07-0.69-0.24-1.19-0.49c-0.74-0.37-1-1.07-1-1.54
      l-0.51-6.59c-0.82-0.58-0.73-1.65-0.7-2.06l0.01-0.2c0-0.01,0.1-2.46,0.11-3.38c0-0.24-0.02-1.02-0.12-3.38l-0.31-4.02
      c-0.04-0.48,0.27-0.91,0.73-1.04l0.46-0.13c-0.01-0.01-0.01-0.02-0.02-0.03c-1.16-1.13-1.82-2.68-1.83-4.28
      c0-1.6,0.62-3.11,1.74-4.24c1.12-1.13,2.62-1.76,4.22-1.76h0.01c1.59,0,3.09,0.62,4.21,1.75c1.13,1.13,1.75,2.64,1.75,4.24
      c0,1.63-0.67,3.19-1.86,4.33c0.06,0.04,0.12,0.09,0.18,0.14c0.58,0.5,0.86,1.31,0.85,2.41c0,0.43-0.28,3.35-0.34,3.93
      c-0.2,1.33-0.53,2.6-0.78,3.47c-0.22,4-0.43,7.85-0.44,8.03c-0.03,0.63-0.32,0.96-0.45,1.07c-0.84,0.92-0.89,0.96-1.01,1.03
      c-0.4,0.25-0.81,0.17-0.99,0.12c-0.02,0-0.04-0.01-0.06-0.01C31,41.87,31,41.95,31,41.99c-0.01,0.69-0.31,1.08-0.5,1.26
      c-0.13,0.13-0.87,0.88-0.95,0.94C29.34,44.37,29.08,44.46,28.81,44.46L28.81,44.46z M28.15,42.14c0.16,0.08,0.32,0.14,0.45,0.2
      c0.14-0.15,0.3-0.31,0.4-0.4c0.02-0.46,0.16-2.31,0.22-3.12c0.04-0.52,0.47-0.92,0.99-0.93h0.01c0.52,0,0.95,0.39,1,0.91
      l0.07,0.82c0.09-0.1,0.18-0.19,0.25-0.27c0.02-0.4,0.11-2.03,0.44-8.06c0-0.08,0.02-0.15,0.04-0.23c0.24-0.81,0.56-2.04,0.75-3.26
      c0.15-1.61,0.32-3.47,0.32-3.71c0.01-0.69-0.16-0.87-0.16-0.87c-0.15,0.02-0.25,0.04-0.39,0l-1.14-0.33
      c-0.41-0.12-0.7-0.48-0.72-0.91c-0.02-0.43,0.23-0.82,0.63-0.98l0.12-0.05c0.06-0.03,0.12-0.06,0.17-0.08l0.11-0.06
      c0.13-0.06,0.25-0.12,0.37-0.2c0.07-0.04,0.13-0.1,0.2-0.15c0.06-0.05,0.11-0.08,0.15-0.11c0.02-0.03,0.05-0.05,0.08-0.07
      c0.9-0.77,1.41-1.88,1.41-3.03c0-1.07-0.41-2.07-1.16-2.83c-0.75-0.75-1.74-1.17-2.79-1.17c-1.06,0-2.05,0.42-2.8,1.17
      c-0.75,0.76-1.16,1.76-1.16,2.83c0,1.15,0.49,2.21,1.37,2.99c0.03,0.02,0.05,0.05,0.08,0.08l0.22,0.17l0.15,0.12
      c0.11,0.07,0.22,0.13,0.34,0.18l0.17,0.09c0.05,0.03,0.1,0.05,0.15,0.08c0,0,0.12,0.05,0.13,0.05c0.41,0.15,0.67,0.55,0.65,0.98
      s-0.31,0.81-0.73,0.92l-1.81,0.51l0.25,3.23c0.09,1.99,0.13,3.13,0.12,3.51c-0.01,0.94-0.11,3.44-0.11,3.44
      c0,0.08-0.01,0.18-0.02,0.28c-0.01,0.08-0.02,0.2-0.02,0.29c0.36,0.14,0.64,0.48,0.67,0.87L28.15,42.14L28.15,42.14z M31.67,39.2
      c-0.03,0.02-0.05,0.04-0.06,0.07C31.64,39.22,31.67,39.2,31.67,39.2z"/>
    <path fill="#CE592C" d="M31.14,31.34c-0.06,0.52-0.36,1.3,0.56,1.51s1.03-0.7,1.1-0.95c0,0,0.65-1.97,0.95-3.96
      c0,0,0.33-3.44,0.33-3.85c0.02-1.52-0.66-1.99-1.35-1.84c-0.5,0.11-1.03,0.5-1.01,1.75c0,0-0.15,3.56-0.21,4.24
      C31.43,29.09,31.14,31.34,31.14,31.34L31.14,31.34z"/>
    <path fill="#FDBF2D" d="M25.64,22.64l4.31-1.2c0,0,3.41,1.02,3.43,1.02L32.4,39.77l-1.04,1.03c0,0-0.81-0.22-0.91-0.26
      c-0.1-0.03-0.1-0.18-0.1-0.18l-0.15-1.68l-0.7,4.1l-0.72,0.66c0,0-0.6-0.18-1.16-0.47c-0.45-0.23-0.45-0.65-0.45-0.65L25.64,22.64
      z"/>
    <path fill="#CE592C" d="M26.43,33.85c-0.01,0.58-0.14,1.33,0.9,1.51c0.76,0.13,0.77-0.13,1.03-1.17c0,0,0.44-2.57,0.55-4.83
      c0,0,0.13-3.4,0.08-3.86c-0.16-1.71-0.98-2.15-1.72-1.91c-0.55,0.18-1.1,0.67-0.93,2.07c0,0,0.14,3.92,0.15,4.7
      C26.5,31.3,26.43,33.85,26.43,33.85L26.43,33.85z"/>
    <path fill="#FABD2C" d="M29.53,23.71l3.89-1.29c0,0,0.03,0.01,0.03,0.09c-0.08,1.5-0.91,16.72-0.92,16.99s-0.12,0.37-0.12,0.37
      s-0.82,0.89-0.88,0.93s-0.17,0-0.17,0s0.08-0.04,0.09-0.23s-0.38-7.48-0.38-7.48c-0.01-0.37-0.07-0.52-0.23-0.53
      c-0.15,0-0.19,0.15-0.19,0.53c0,0-0.63,8.45-0.64,8.88s-0.2,0.56-0.2,0.56s-0.82,0.83-0.89,0.89c-0.08,0.06-0.19,0.01-0.19,0.01
      s0.14-0.01,0.14-0.3C28.86,42.94,29.53,23.71,29.53,23.71L29.53,23.71z"/>
    <path opacity="0.3" fill="#CE592C" enable-background="new    " d="M29.53,23.71l3.89-1.29c0,0,0.03,0.01,0.03,0.09
      c-0.08,1.5-0.91,16.72-0.92,16.99s-0.12,0.37-0.12,0.37s-0.82,0.89-0.88,0.93s-0.17,0-0.17,0s0.08-0.04,0.09-0.23
      s-0.38-7.48-0.38-7.48c-0.01-0.37-0.07-0.52-0.23-0.53c-0.15,0-0.19,0.15-0.19,0.53c0,0-0.63,8.45-0.64,8.88s-0.2,0.56-0.2,0.56
      s-0.82,0.83-0.89,0.89c-0.08,0.06-0.19,0.01-0.19,0.01s0.14-0.01,0.14-0.3C28.86,42.94,29.53,23.71,29.53,23.71L29.53,23.71z"/>
    <path fill="#CE592C" d="M33.42,22.42l-3.89,1.29l-3.89-1.07l4.37-1.2"/>
    <ellipse opacity="0.5" fill="#CE592C" enable-background="new    " cx="29.8" cy="22.4" rx="2.13" ry="0.52"/>
    <path fill="#FABD2C" d="M25.97,33.53c-0.02,0.57-0.27,1.45,0.76,1.59c1.02,0.14,1.05-0.86,1.11-1.14c0,0,0.52-2.21,0.66-4.41
      c0,0,0.03-3.78-0.01-4.23c-0.12-1.66-0.91-2.11-1.64-1.87c-0.53,0.17-1.08,0.65-0.94,2.01c0,0,0.18,3.89,0.18,4.64
      C26.07,31.05,25.97,33.53,25.97,33.53L25.97,33.53z"/>
    <path opacity="0.25" fill="#CF572E" enable-background="new    " d="M25.97,33.53c-0.02,0.57-0.27,1.45,0.76,1.59
      c1.02,0.14,1.05-0.86,1.11-1.14c0,0,0.52-2.21,0.66-4.41c0,0,0.03-3.78-0.01-4.23c-0.12-1.66-0.91-2.11-1.64-1.87
      c-0.53,0.17-1.08,0.65-0.94,2.01c0,0,0.18,3.89,0.18,4.64C26.07,31.05,25.97,33.53,25.97,33.53L25.97,33.53z"/>
    <ellipse fill="#FABD2C" cx="29.95" cy="17.23" rx="4.96" ry="5"/>
    <path opacity="0.25" fill="#CE592C" enable-background="new    " d="M29.98,21.74c1.19,0,2.3-0.27,3.24-0.75
      c-0.87,0.77-2.01,1.24-3.26,1.24c-1.28,0-2.44-0.49-3.32-1.28C27.6,21.45,28.75,21.74,29.98,21.74L29.98,21.74z"/>
    <path fill="#FDBF2D" d="M25.99,33.53c-0.04,1.16,0.54,0.95,0.82,0.81c0.99-0.52,1.09-5.12,1.2-6.56c0.07-0.97,0.16-3.58-0.78-4.26
      c-0.55-0.21-1.04,0.42-1.09,0.51c-0.19,0.31-0.29,0.77-0.22,1.45c0,0,0.18,3.89,0.18,4.64C26.09,31.05,25.99,33.53,25.99,33.53z"
      />
  </g>
</svg>
