<svg xmlns="http://www.w3.org/2000/svg" width="60px" height="60px" viewBox="0 0 60 60">
  <g>
    <path opacity="0.3" fill="#111111" enable-background="new    " d="M30.33,27.19c-11.24,0-20.35,6.46-20.35,14.42
      s9.11,14.42,20.35,14.42s20.35-6.46,20.35-14.42C50.68,33.64,41.57,27.19,30.33,27.19z M30.21,55.03
      c-10.75,0-19.47-6.06-19.47-13.53s8.72-13.53,19.47-13.53s19.47,6.06,19.47,13.53S40.96,55.03,30.21,55.03z"/>
    <ellipse opacity="0.1" fill="#111111" enable-background="new    " cx="30.21" cy="41.5" rx="19.47" ry="13.53"/>
  </g>
  <g>
    <path fill="#FFFFFF" d="M12.95,45.15c-0.24,0-0.44-0.17-0.49-0.4c-0.05-0.23,0.08-0.47,0.3-0.56l11.98-4.97
      c0.15-0.06,0.31-0.05,0.45,0.03s0.23,0.22,0.24,0.38c0,0.01,0.14,1.46,0.71,2.26c0.49,0.69,2.3,1.86,2.96,2.25
      c0.19,0.12,0.29,0.34,0.23,0.56c-0.06,0.22-0.26,0.37-0.48,0.37L12.95,45.15L12.95,45.15z M24.54,40.39l-9.04,3.75l11.68-0.06
      c-0.71-0.5-1.49-1.11-1.85-1.61C24.88,41.85,24.65,40.98,24.54,40.39z"/>
    <path fill="#3F3F3F" d="M28.85,44.58c0,0-2.46-1.47-3.12-2.39c-0.66-0.93-0.8-2.5-0.8-2.5l-11.98,4.97L28.85,44.58L28.85,44.58z"
      />
    <path fill="#333333" d="M30.68,44.46c-0.26,0-0.52-0.09-0.73-0.26c-0.08-0.07-0.83-0.82-0.95-0.95c-0.19-0.18-0.49-0.57-0.5-1.26
      c0-0.04-0.01-0.12-0.01-0.25c-0.05,0.01-0.08,0.02-0.08,0.02c-0.46,0.12-0.78,0-0.97-0.12c-0.12-0.08-0.17-0.11-1.08-1.1
      c-0.06-0.05-0.36-0.38-0.38-1.01c-0.01-0.16-0.15-2.69-0.31-5.77c-0.72-0.23-1.44-0.83-1.17-2.37l0.03-0.18
      c0-0.01,0.29-2.23,0.37-3.07c0.05-0.54,0.17-3.21,0.21-4.19c0-0.08,0-0.19,0.01-0.31l-0.06-1.09c-0.02-0.39,0.21-0.84,0.55-1.03
      c0.05-0.03,0.11-0.05,0.16-0.07c-1.13-1.13-1.78-2.65-1.77-4.24c0-1.6,0.62-3.11,1.75-4.24c1.12-1.13,2.62-1.75,4.21-1.75h0.01
      c1.59,0,3.09,0.63,4.21,1.76s1.74,2.64,1.74,4.24c0,1.61-0.66,3.15-1.83,4.29c-0.03,0.04-0.06,0.08-0.1,0.12l0.14,0.04
      c0.46,0.13,0.76,0.56,0.73,1.04l-0.07,0.85c0.25,0.45,0.4,1.02,0.45,1.69c0.03,0.47,0.01,3.67,0.01,4.31
      c-0.14,2.31-0.66,4.54-0.69,4.63c-0.1,0.68-0.34,1.18-0.71,1.5l-0.52,6.71c0,0.4-0.26,1.09-0.99,1.46
      c-0.5,0.25-0.99,0.42-1.19,0.49C31,44.43,30.84,44.46,30.68,44.46L30.68,44.46z M30.5,41.93c0.1,0.1,0.25,0.26,0.4,0.41
      c0.14-0.05,0.29-0.12,0.45-0.2l0.55-7.12c0.03-0.39,0.28-0.72,0.64-0.86c0.02-0.08,0.04-0.19,0.05-0.24
      c0-0.01,0.02-0.12,0.02-0.13c0.01-0.07,0.51-2.2,0.64-4.28c0.01-1.78,0.01-3.84,0-4.09c-0.04-0.6-0.19-0.86-0.27-0.96
      c-0.16-0.2-0.23-0.45-0.21-0.7l0.03-0.37l-1.61-0.45c-0.42-0.12-0.72-0.5-0.73-0.94s0.27-0.84,0.69-0.97l0.15-0.04
      c0.05-0.01,0.1-0.03,0.14-0.05c0.05-0.02,0.1-0.05,0.15-0.08l0.13-0.07c0.17-0.08,0.28-0.14,0.38-0.2
      c0.07-0.04,0.12-0.08,0.17-0.12l0.22-0.17c0.02-0.03,0.05-0.05,0.07-0.07c0.88-0.78,1.36-1.84,1.37-2.99
      c0-1.07-0.41-2.07-1.16-2.83c-0.75-0.75-1.74-1.17-2.79-1.17c-1.06,0-2.05,0.41-2.79,1.17c-0.75,0.75-1.16,1.76-1.16,2.83
      c0,1.16,0.51,2.26,1.41,3.03c0.03,0.02,0.06,0.05,0.08,0.08l0.08,0.06c0.13,0.1,0.2,0.15,0.27,0.2c0.1,0.06,0.21,0.12,0.32,0.17
      l0.19,0.1c0.03,0.02,0.07,0.04,0.1,0.05c0.39,0.16,0.64,0.55,0.62,0.98c-0.02,0.42-0.31,0.79-0.72,0.91l-1.25,0.36l0.02,0.44v0.13
      c-0.01,0.08-0.01,0.16-0.01,0.25c-0.01,0.2-0.15,3.65-0.22,4.35c-0.08,0.85-0.38,3.12-0.38,3.12c-0.01,0.08-0.03,0.18-0.04,0.28
      c0,0.02-0.01,0.04-0.01,0.06c0.24-0.03,0.49,0.02,0.71,0.16c0.27,0.17,0.44,0.49,0.45,0.81c0.23,4.28,0.33,6.11,0.36,6.57
      c0.07,0.08,0.16,0.17,0.25,0.27l0.07-0.82c0.05-0.52,0.48-0.91,1-0.91h0.01c0.52,0,0.95,0.41,0.99,0.93
      C30.43,40.79,30.49,41.69,30.5,41.93L30.5,41.93z M27.77,39.13l0.1,0.1L27.77,39.13z"/>
    <path fill="#FABD2C" d="M25.51,31.34c-0.06,0.52-0.36,1.3,0.56,1.51s1.03-0.7,1.1-0.95c0,0,0.65-1.97,0.95-3.96
      c0,0,0.33-3.44,0.33-3.85c0.02-1.52-0.66-1.99-1.35-1.84c-0.5,0.11-1.03,0.5-1.01,1.75c0,0-0.15,3.56-0.21,4.24
      C25.81,29.09,25.51,31.34,25.51,31.34L25.51,31.34z"/>
    <path opacity="0.25" fill="#CE592C" enable-background="new    " d="M25.51,31.34c-0.06,0.52-0.36,1.3,0.56,1.51
      s1.03-0.7,1.1-0.95c0,0,0.65-1.97,0.95-3.96c0,0,0.33-3.44,0.33-3.85c0.02-1.52-0.66-1.99-1.35-1.84c-0.5,0.11-1.03,0.5-1.01,1.75
      c0,0-0.15,3.56-0.21,4.24C25.81,29.09,25.51,31.34,25.51,31.34L25.51,31.34z"/>
    <path fill="#E58A2C" d="M33.86,22.64l-4.31-1.2c0,0-3.41,1.02-3.43,1.02l0.98,17.31l1.04,1.03c0,0,0.81-0.22,0.91-0.26
      c0.1-0.03,0.1-0.18,0.1-0.18l0.15-1.68l0.7,4.1l0.72,0.66c0,0,0.6-0.18,1.16-0.47c0.45-0.23,0.45-0.65,0.45-0.65L33.86,22.64z"/>
    <path fill="#FABD2C" d="M29.97,23.71l-3.89-1.29c0,0-0.03,0.01-0.03,0.09c0.08,1.5,0.91,16.72,0.92,16.99s0.12,0.37,0.12,0.37
      s0.82,0.89,0.88,0.93s0.17,0,0.17,0s-0.08-0.04-0.09-0.23s0.38-7.48,0.38-7.48c0.01-0.37,0.07-0.52,0.23-0.53
      c0.15,0,0.19,0.15,0.19,0.53c0,0,0.63,8.45,0.64,8.88s0.2,0.56,0.2,0.56s0.82,0.83,0.89,0.89c0.08,0.06,0.19,0.01,0.19,0.01
      s-0.14-0.01-0.14-0.3C30.64,42.94,29.97,23.71,29.97,23.71L29.97,23.71z"/>
    <path fill="#CE592C" d="M26.08,22.42l3.89,1.29l3.89-1.07l-4.37-1.2"/>
    <ellipse opacity="0.5" fill="#CE592C" enable-background="new    " cx="29.7" cy="22.4" rx="2.13" ry="0.52"/>
    <path opacity="0.25" fill="#CE592C" enable-background="new    " d="M33.97,25.66c-0.04-1.67-0.72-2.46-1.44-2.22
      c-0.81,0.27-1.29,1.03-1.21,2.4c0,0,0.07,3.73,0.03,4.48c-0.05,0.93-0.27,3.4-0.27,3.4c-0.05,0.57-0.33,1.44,0.68,1.63
      c0.22,0.04,0.39-0.01,0.53-0.12l0.28-0.43c0,0,0.97-2.72,1.21-4.91C33.78,29.87,33.98,26.11,33.97,25.66L33.97,25.66z"/>
    <path fill="#FABD2C" d="M31.73,33.53c-0.02,0.57-0.27,1.45,0.76,1.59c1.02,0.14,1.05-0.86,1.11-1.14c0,0,0.52-2.21,0.66-4.41
      c0,0,0.03-3.78-0.01-4.23c-0.12-1.66-0.91-2.11-1.64-1.87c-0.53,0.17-1.08,0.65-0.94,2.01c0,0,0.18,3.89,0.18,4.64
      C31.83,31.05,31.73,33.53,31.73,33.53L31.73,33.53z"/>
    <path opacity="0.3" fill="#CE592C" enable-background="new    " d="M32.08,33.84c0,0,0.08-2.81,0.08-3.77
      c0.01-0.79-0.3-4.73-0.3-4.73c-0.08-0.79,0.06-1.31,0.29-1.63c-0.34,0.28-0.59,0.82-0.49,1.79c0,0,0.18,3.89,0.18,4.64
      c-0.01,0.93-0.11,3.41-0.11,3.41c-0.02,0.45-0.17,1.1,0.28,1.42C32.03,34.69,32.07,34.22,32.08,33.84L32.08,33.84z"/>
    <ellipse fill="#FABD2C" cx="29.95" cy="17.23" rx="4.96" ry="5"/>
    <path opacity="0.25" fill="#CE592C" enable-background="new    " d="M29.93,21.74c-1.19,0-2.3-0.27-3.24-0.75
      c0.87,0.77,2.01,1.24,3.26,1.24c1.28,0,2.44-0.49,3.32-1.28C32.31,21.45,31.16,21.74,29.93,21.74L29.93,21.74z"/>
    <path opacity="0.6" fill="#CE592C" enable-background="new    " d="M27.13,22.77l0.94,4.66l0.76-4.1"/>
  </g>
</svg>
